start;end;pitch;velocity;duration;instrument
3.94;4.368571;41;81;0.42857100000000026;piano
3.94;4.368571;65;81;0.42857100000000026;piano
4.368571;4.5828565;53;82;0.2142854999999999;piano
4.368571;5.0114275;65;76;0.6428564999999997;piano
4.5828565;4.797142;55;82;0.2142854999999999;piano
4.797142;5.225713000000001;56;83;0.4285710000000007;piano
5.0114275;5.225713000000001;72;81;0.2142855000000008;piano
5.225713000000001;5.634284;53;77;0.40857099999999935;piano
5.225713000000001;5.4199985;68;76;0.19428549999999944;piano
5.4199985;5.634284;64;69;0.2142854999999999;piano
5.634284;6.042855;37;72;0.40857100000000024;piano
5.634284;5.8485695;65;77;0.2142854999999999;piano
5.8485695;6.042855;64;71;0.19428550000000033;piano
6.042855;6.2171405;53;81;0.17428549999999987;piano
6.042855;6.645711500000001;65;74;0.6028565000000006;piano
6.2171405;6.415713;55;83;0.19857250000000004;piano
6.415713;6.859997000000001;56;84;0.44428400000000057;piano
6.645711500000001;6.859997000000001;72;85;0.2142854999999999;piano
6.859997000000001;7.288568000000001;53;76;0.4285709999999998;piano
6.859997000000001;7.074282500000001;68;77;0.2142854999999999;piano
7.074282500000001;7.288568000000001;64;69;0.2142854999999999;piano
7.288568000000001;7.697139;44;73;0.40857099999999935;piano
7.288568000000001;7.429639287500001;65;77;0.14107128749999998;piano
7.429639287500001;7.573389143750001;66;75;0.14374985625000036;piano
7.573389143750001;7.697139;64;70;0.12374985624999901;piano
7.697139;7.911424500000001;53;80;0.2142855000000008;piano
7.697139;8.299995500000001;65;74;0.6028565000000015;piano
7.911424500000001;8.10571;55;83;0.19428549999999944;piano
8.10571;8.514281;56;84;0.40857100000000024;piano
8.299995500000001;8.514281;72;86;0.21428549999999902;piano
8.514281;8.902852000000001;53;76;0.38857100000000067;piano
8.514281;8.728566500000001;68;78;0.2142855000000008;piano
8.728566500000001;8.902852000000001;65;70;0.17428549999999987;piano
8.902852000000001;9.311423000000001;58;88;0.40857100000000024;piano
8.902852000000001;9.311423000000001;65;92;0.40857100000000024;piano
8.902852000000001;9.311423000000001;70;92;0.40857100000000024;piano
8.902852000000001;9.311423000000001;73;92;0.40857100000000024;piano
9.311423000000001;9.759994;46;68;0.4485709999999994;piano
9.311423000000001;9.759994;61;79;0.4485709999999994;piano
9.311423000000001;9.759994;65;79;0.4485709999999994;piano
9.311423000000001;9.759994;70;79;0.4485709999999994;piano
9.759994;9.921065287500001;73;82;0.16107128750000044;piano
9.921065287500001;10.04481514375;70;75;0.12374985624999901;piano
10.04481514375;10.228565000000001;69;73;0.1837498562500013;piano
10.228565000000001;10.657136000000001;70;76;0.4285709999999998;piano
10.657136000000001;11.091414000000004;46;79;0.4342780000000026;piano
10.657136000000001;11.091414000000004;70;80;0.4342780000000026;piano
11.091414000000004;11.319992500000001;58;84;0.22857849999999758;piano
11.091414000000004;11.728563500000002;70;76;0.6371494999999978;piano
11.319992500000001;11.534277999999999;60;84;0.21428549999999724;piano
11.534277999999999;11.922849000000001;61;83;0.38857100000000244;piano
11.728563500000002;11.922849000000001;77;84;0.19428549999999944;piano
11.922849000000001;12.311420000000002;58;77;0.38857100000000067;piano
11.922849000000001;12.097134500000001;73;77;0.17428549999999987;piano
12.097134500000001;12.311420000000002;69;69;0.2142855000000008;piano
12.311420000000002;12.699991;49;71;0.3885709999999989;piano
12.311420000000002;12.485705500000002;70;77;0.17428549999999987;piano
12.485705500000002;12.699991;69;71;0.21428549999999902;piano
12.699991;12.9142765;58;80;0.21428549999999902;piano
12.699991;13.302847500000002;70;74;0.6028565000000015;piano
12.9142765;13.122854;60;83;0.20857750000000053;piano
13.122854;13.497133000000002;61;84;0.37427900000000136;piano
13.302847500000002;13.497133000000002;77;85;0.19428549999999944;piano
13.497133000000002;13.905704000000002;58;76;0.40857100000000024;piano
13.497133000000002;13.691418500000001;73;77;0.19428549999999944;piano
13.691418500000001;13.905704000000002;69;69;0.2142855000000008;piano
13.905704000000002;14.314275;43;72;0.40857099999999846;piano
13.905704000000002;14.046775287500001;70;77;0.1410712874999991;piano
14.046775287500001;14.170525143750002;71;75;0.12374985625000079;piano
14.170525143750002;14.314275;69;70;0.1437498562499986;piano
14.314275;14.528560500000001;58;82;0.2142855000000008;piano
14.314275;14.897131500000002;70;74;0.5828565000000019;piano
14.528560500000001;14.740948666666668;60;83;0.21238816666666693;piano
14.740948666666668;15.111417000000001;61;84;0.3704683333333332;piano
14.897131500000002;15.111417000000001;77;86;0.21428549999999902;piano
15.111417000000001;15.499988000000002;58;76;0.38857100000000067;piano
15.111417000000001;15.325702500000002;73;78;0.2142855000000008;piano
15.325702500000002;15.499988000000002;70;70;0.17428549999999987;piano
15.499988000000002;15.928559000000002;60;84;0.4285709999999998;piano
15.499988000000002;15.928559000000002;67;90;0.4285709999999998;piano
15.499988000000002;15.928559000000002;72;90;0.4285709999999998;piano
15.499988000000002;15.928559000000002;76;90;0.4285709999999998;piano
15.928559000000002;16.35713;48;67;0.4285709999999998;piano
15.928559000000002;16.35713;64;74;0.4285709999999998;piano
15.928559000000002;16.35713;67;74;0.4285709999999998;piano
15.928559000000002;16.35713;72;74;0.4285709999999998;piano
16.35713;16.420522793750003;76;82;0.06339279375000118;piano
16.420522793750003;16.48480844375;77;82;0.06428564999999864;piano
16.48480844375;16.631415500000003;76;82;0.14660705625000148;piano
16.631415500000003;16.865701;74;78;0.2342854999999986;piano
16.865701;17.294272000000003;76;80;0.4285710000000016;piano
17.294272000000003;17.682843000000002;36;78;0.3885709999999989;piano
17.294272000000003;17.508557500000002;79;88;0.21428549999999902;piano
17.508557500000002;17.682843000000002;77;78;0.17428549999999987;piano
17.682843000000002;17.87856425;48;80;0.1957212499999983;piano
17.682843000000002;17.87856425;76;75;0.1957212499999983;piano
17.87856425;18.091414000000004;50;81;0.21284975000000372;piano
17.87856425;18.091414000000004;74;71;0.21284975000000372;piano
18.091414000000004;18.459985000000003;52;83;0.3685709999999993;piano
18.091414000000004;18.459985000000003;72;68;0.3685709999999993;piano
18.459985000000003;18.868555999999998;48;76;0.4085709999999949;piano
18.459985000000003;18.868555999999998;70;67;0.4085709999999949;piano
18.868555999999998;19.278563500000004;41;75;0.4100075000000061;piano
18.868555999999998;18.931948793750003;68;75;0.06339279375000473;piano
18.931948793750003;18.99623444375;70;75;0.06428564999999864;piano
18.99623444375;19.085683000000003;68;75;0.08944855625000159;piano
19.085683000000003;19.278563500000004;67;68;0.19288050000000112;piano
19.278563500000004;19.491412500000003;53;85;0.2128489999999985;piano
19.278563500000004;19.8599945;68;72;0.5814309999999949;piano
19.491412500000003;19.685698000000002;52;82;0.19428549999999944;piano
19.685698000000002;20.074269;53;82;0.3885709999999989;piano
19.8599945;20.074269;65;72;0.21427450000000192;piano
20.074269;20.502840000000003;56;84;0.4285710000000016;piano
20.074269;20.2885545;64;72;0.21428549999999902;piano
20.2885545;20.502840000000003;65;75;0.21428550000000257;piano
20.502840000000003;20.911411000000005;43;73;0.408571000000002;piano
20.502840000000003;20.7171255;71;91;0.21428549999999902;piano
20.7171255;20.911411000000005;72;86;0.194285500000003;piano
20.911411000000005;21.105696500000004;59;86;0.19428549999999944;piano
20.911411000000005;21.105696500000004;74;87;0.19428549999999944;piano
21.105696500000004;21.299982000000004;60;85;0.19428549999999944;piano
21.105696500000004;21.299982000000004;72;82;0.19428549999999944;piano
21.299982000000004;21.688553;62;85;0.38857099999999534;piano
21.299982000000004;21.478089166666667;71;78;0.17810716666666337;piano
21.478089166666667;21.688553;69;72;0.21046383333333196;piano
21.688553;22.037124000000002;59;78;0.3485710000000033;piano
21.688553;21.89141925;67;68;0.20286624999999958;piano
21.89141925;22.037124000000002;65;66;0.1457047500000037;piano
22.037124000000002;22.485695000000003;48;71;0.44857100000000116;piano
22.037124000000002;22.073909637499998;65;76;0.03678563749999597;piano
22.073909637499998;22.23158813125;67;76;0.15767849375000154;piano
22.23158813125;22.485695000000003;65;76;0.25410686875000366;piano
22.485695000000003;22.719961000000005;60;83;0.23426600000000164;piano
22.485695000000003;23.1285515;64;68;0.642856499999997;piano
22.719961000000005;22.914266000000005;61;83;0.19430499999999995;piano
22.914266000000005;23.302837000000004;60;80;0.3885709999999989;piano
23.1285515;23.302837000000004;60;69;0.17428550000000342;piano
23.302837000000004;23.711408000000002;58;75;0.40857099999999846;piano
23.302837000000004;23.517122500000003;62;74;0.21428549999999902;piano
23.517122500000003;23.711408000000002;64;78;0.19428549999999944;piano
23.711408000000002;24.139979000000004;56;77;0.4285710000000016;piano
23.711408000000002;24.139979000000004;65;85;0.4285710000000016;piano
24.139979000000004;24.354264500000003;53;70;0.21428549999999902;piano
24.139979000000004;24.7428355;65;79;0.6028564999999979;piano
24.354264500000003;24.564275;55;74;0.21001049999999566;piano
24.564275;24.9385605;56;77;0.3742855000000027;piano
24.7428355;24.9385605;72;85;0.19572499999999948;piano
24.9385605;25.365692000000003;53;72;0.42713150000000155;piano
24.9385605;25.151406500000004;68;78;0.21284600000000253;piano
25.151406500000004;25.365692000000003;64;70;0.21428549999999902;piano
25.365692000000003;25.747131500000002;49;74;0.38143949999999904;piano
25.365692000000003;25.579977500000002;65;77;0.21428549999999902;piano
25.579977500000002;25.747131500000002;64;71;0.16715400000000002;piano
25.747131500000002;25.9485485;53;77;0.2014169999999993;piano
25.747131500000002;26.319039833333335;65;74;0.571908333333333;piano
25.9485485;26.142834000000004;55;80;0.194285500000003;piano
26.142834000000004;26.511405000000003;56;82;0.3685709999999993;piano
26.319039833333335;26.511405000000003;72;85;0.19236516666666859;piano
26.511405000000003;26.959976000000005;53;75;0.44857100000000116;piano
26.511405000000003;26.745690500000002;68;77;0.2342854999999986;piano
26.745690500000002;26.959976000000005;65;71;0.21428550000000257;piano
26.959976000000005;27.388547;46;73;0.4285709999999945;piano
26.959976000000005;27.121047287500005;73;92;0.16107128750000044;piano
27.121047287500005;27.264797143750002;72;84;0.1437498562499968;piano
27.264797143750002;27.388547;70;78;0.12374985624999724;piano
27.388547;27.529618287500004;68;71;0.14107128750000442;piano
27.529618287500004;27.673368143750004;70;78;0.14374985625000036;piano
27.673368143750004;27.817118000000004;67;68;0.14374985625000036;piano
27.817118000000004;28.225689000000003;48;75;0.40857099999999846;piano
27.817118000000004;27.958189287500005;76;88;0.14107128750000086;piano
27.958189287500005;28.101939143750005;73;85;0.14374985625000036;piano
28.101939143750005;28.225689000000003;72;81;0.12374985624999724;piano
28.225689000000003;28.3667602875;70;72;0.1410712874999973;piano
28.3667602875;28.495255071875;72;81;0.1284947843750004;piano
28.495255071875;28.634260000000005;68;66;0.1390049281250043;piano
28.634260000000005;29.062831000000003;49;81;0.42857099999999804;piano
28.634260000000005;28.775331287500006;77;93;0.14107128750000086;piano
28.775331287500006;28.919081143750006;75;87;0.14374985625000036;piano
28.919081143750006;29.062831000000003;73;80;0.1437498562499968;piano
29.062831000000003;29.2039022875;72;75;0.1410712874999973;piano
29.2039022875;29.34765214375;73;79;0.14374985625000036;piano
29.34765214375;29.471402000000005;70;67;0.12374985625000434;piano
29.471402000000005;29.859973000000004;40;74;0.3885709999999989;piano
29.471402000000005;29.612473287500006;79;88;0.14107128750000086;piano
29.612473287500006;29.716223143750003;77;88;0.10374985624999766;piano
29.716223143750003;29.859973000000004;76;85;0.14374985625000036;piano
29.859973000000004;30.001044287500005;73;71;0.14107128750000086;piano
30.001044287500005;30.12479414375;72;68;0.12374985624999724;piano
30.12479414375;30.268544000000002;70;65;0.14374985625000036;piano
30.268544000000002;30.657115000000005;41;80;0.38857100000000244;piano
30.268544000000002;30.409615287500003;68;69;0.14107128750000086;piano
30.409615287500003;30.553365143750003;67;65;0.14374985625000036;piano
30.553365143750003;30.657115000000005;65;65;0.10374985625000122;piano
30.657115000000005;31.065686000000003;43;77;0.40857099999999846;piano
30.657115000000005;30.798186287500005;70;73;0.14107128750000086;piano
30.798186287500005;30.921936143750006;68;67;0.12374985625000079;piano
30.921936143750006;31.065686000000003;67;65;0.1437498562499968;piano
31.065686000000003;31.474257000000005;44;77;0.408571000000002;piano
31.065686000000003;31.2067572875;72;85;0.1410712874999973;piano
31.2067572875;31.330507143750005;70;77;0.12374985625000434;piano
31.330507143750005;31.474257000000005;68;69;0.14374985625000036;piano
31.474257000000005;31.882828000000003;46;78;0.40857099999999846;piano
31.474257000000005;31.615328287500006;73;88;0.14107128750000086;piano
31.615328287500006;31.739078143750003;70;77;0.12374985624999724;piano
31.739078143750003;31.882828000000003;67;66;0.14374985625000036;piano
31.882828000000003;32.291399000000006;36;75;0.408571000000002;piano
31.882828000000003;32.0238992875;64;69;0.1410712874999973;piano
32.0238992875;32.14764914375;67;69;0.12374985625000079;piano
32.14764914375;32.291399000000006;70;84;0.14374985625000392;piano
32.291399000000006;32.50568450000001;48;82;0.21428550000000257;piano
32.291399000000006;32.82104128750001;70;83;0.5296422875000033;piano
32.50568450000001;32.679970000000004;50;84;0.17428549999999632;piano
32.679970000000004;33.108541;52;85;0.42857099999999804;piano
32.82104128750001;32.96479114375;67;72;0.1437498562499897;piano
32.96479114375;33.108541;68;75;0.14374985625000392;piano
33.108541;33.498556;48;76;0.3900149999999982;piano
33.108541;33.24961228750001;70;82;0.14107128750000442;piano
33.24961228750001;33.37336214375001;68;74;0.12374985625000079;piano
33.37336214375001;33.498556;67;71;0.12519385624999302;piano
33.498556;33.92568300000001;53;87;0.4271270000000058;piano
33.498556;33.638183287500006;68;80;0.13962728750000508;piano
33.638183287500006;33.78193314375001;73;88;0.14374985625000392;piano
33.78193314375001;33.92568300000001;71;84;0.1437498562499968;piano
33.92568300000001;34.13996850000001;44;71;0.21428550000000257;piano
33.92568300000001;34.066754287500004;72;85;0.1410712874999973;piano
34.066754287500004;34.21050414375;64;65;0.1437498562499968;piano
34.13996850000001;34.314254000000005;46;74;0.17428549999999632;piano
34.21050414375;34.314254000000005;65;65;0.10374985625000477;piano
34.314254000000005;34.742825;48;77;0.42857099999999804;piano
34.314254000000005;34.45532528750001;70;83;0.14107128750000442;piano
34.45532528750001;34.59907514375001;68;74;0.1437498562499968;piano
34.59907514375001;34.742825;67;70;0.1437498562499968;piano
34.742825;35.151396000000005;36;68;0.408571000000002;piano
34.742825;34.863896287500005;68;75;0.12107128750000129;piano
34.863896287500005;35.00764614375;67;71;0.1437498562499968;piano
35.00764614375;35.151396000000005;65;66;0.14374985625000392;piano
35.151396000000005;36.10960928750001;41;79;0.9582132875000013;piano
35.151396000000005;35.2924672875;65;71;0.1410712874999973;piano
35.2924672875;35.43621714375;60;65;0.1437498562499968;piano
35.43621714375;35.5599835;58;65;0.12376635625000176;piano
35.5599835;35.701038287500005;56;65;0.14105478750000344;piano
35.701038287500005;35.84478814375001;58;65;0.14374985625000392;piano
35.84478814375001;35.988538;60;67;0.1437498562499897;piano
35.988538;36.337109000000005;53;65;0.34857100000000685;piano
36.10960928750001;36.253359143750004;44;77;0.1437498562499968;piano
36.253359143750004;36.337109000000005;46;79;0.08374985625000164;piano
36.337109000000005;36.4781802875;48;81;0.1410712874999973;piano
36.4781802875;36.62193014375;50;84;0.1437498562499968;piano
36.62193014375;36.76568;52;86;0.14374985625000392;piano
36.76568;37.154251;53;92;0.3885709999999989;piano
36.76568;36.893375643750005;72;93;0.12769564375000186;piano
36.893375643750005;37.01525057187501;77;88;0.12187492812500267;piano
37.01525057187501;37.154251;79;88;0.13900042812499436;piano
37.154251;37.70389328750001;80;88;0.5496422875000064;piano
37.562822000000004;38.01139300000001;41;70;0.44857100000000827;piano
37.70389328750001;37.86764314375;77;79;0.16374985624999283;piano
37.86764314375;38.01139300000001;79;82;0.14374985625001102;piano
38.01139300000001;38.1124642875;80;83;0.10107128749999106;piano
38.1124642875;38.25621414375;79;79;0.1437498562499968;piano
38.25621414375;38.399964000000004;77;72;0.14374985625000392;piano
38.399964000000004;38.788535;43;79;0.3885709999999989;piano
38.399964000000004;38.5410352875;76;73;0.1410712874999973;piano
38.5410352875;38.644785143750006;77;73;0.10374985625000477;piano
38.644785143750006;38.788535;79;81;0.1437498562499968;piano
38.788535;39.35453186250002;70;65;0.5659968625000147;piano
39.177106;39.625677;55;82;0.44857100000000116;piano
39.35453186250002;39.50192714375;72;67;0.14739528124998458;piano
39.50192714375;39.625677;73;69;0.12374985625000079;piano
39.625677;39.7667482875;67;65;0.1410712874999973;piano
39.7667482875;39.91049814375001;68;65;0.14374985625001102;piano
39.91049814375001;40.05424800000001;70;69;0.1437498562499968;piano
40.05424800000001;40.442819;60;84;0.3885709999999918;piano
40.05424800000001;40.195319287500006;64;69;0.1410712874999973;piano
40.195319287500006;40.27906914375001;65;65;0.08374985625000164;piano
40.27906914375001;40.442819;67;68;0.16374985624999283;piano
40.442819;40.583890287500004;60;65;0.14107128750000442;piano
40.583890287500004;40.66764014375;64;66;0.08374985624999454;piano
40.66764014375;40.79139000000001;67;79;0.1237498562500079;piano
40.79139000000001;41.219961000000005;48;73;0.42857099999999804;piano
40.79139000000001;40.932461287500004;70;88;0.1410712874999973;piano
40.932461287500004;41.07621114375;68;82;0.1437498562499968;piano
41.07621114375;41.219961000000005;67;77;0.14374985625000392;piano
41.219961000000005;41.4010322875;73;88;0.18107128749999646;piano
41.4010322875;41.504782143750006;72;88;0.10374985625000477;piano
41.504782143750006;41.648532;70;84;0.1437498562499968;piano
41.648532;42.117103;53;82;0.4685709999999972;piano
41.648532;41.78960328750001;68;78;0.14107128750000442;piano
41.78960328750001;41.97335314375;70;83;0.18374985624999596;piano
41.97335314375;42.117103;72;87;0.1437498562499968;piano
42.117103;42.5467452875;65;65;0.4296422875000019;piano
42.422837;42.83424500000001;41;74;0.41140800000000866;piano
42.5467452875;42.69049514375001;65;67;0.14374985625001102;piano
42.69049514375001;42.83424500000001;67;73;0.1437498562499968;piano
42.83424500000001;42.9753162875;69;80;0.1410712874999902;piano
42.9753162875;43.09906614375001;67;73;0.1237498562500079;piano
43.09906614375001;43.242816000000005;65;67;0.1437498562499968;piano
43.242816000000005;43.655693500000005;45;81;0.41287750000000045;piano
43.242816000000005;43.38388728750001;72;93;0.14107128750000442;piano
43.38388728750001;43.527637143750006;70;83;0.1437498562499968;piano
43.527637143750006;43.655693500000005;69;79;0.12805635624999923;piano
43.655693500000005;43.792458287500004;75;88;0.13676478749999887;piano
43.792458287500004;43.93620814375;73;87;0.1437498562499968;piano
43.93620814375;44.0199895;72;84;0.08378135625000027;piano
44.0199895;44.428529000000005;41;75;0.4085395000000034;piano
44.0199895;44.1610292875;78;88;0.14103978749999868;piano
44.1610292875;44.304779143750004;77;88;0.14374985625000392;piano
44.304779143750004;44.428529000000005;75;85;0.12374985625000079;piano
44.428529000000005;44.534800143750005;81;88;0.10627114374999991;piano
44.534800143750005;44.67335014375001;84;88;0.13855000000000217;piano
44.67335014375001;44.8171;75;73;0.1437498562499968;piano
44.8171;45.24567100000001;46;82;0.42857100000000514;piano
44.8171;44.95817128750001;73;70;0.14107128750000442;piano
44.95817128750001;45.101921143750005;72;65;0.1437498562499968;piano
45.101921143750005;45.24567100000001;70;65;0.14374985625000392;piano
45.24567100000001;45.78593986250001;82;88;0.5402688624999996;piano
45.614242000000004;46.082813;44;76;0.4685709999999972;piano
45.78593986250001;45.939063143750005;79;84;0.15312328124999652;piano
45.939063143750005;46.082813;80;85;0.1437498562499968;piano
46.082813;46.20388428750001;82;87;0.1210712875000084;piano
46.20388428750001;46.327634143750004;80;82;0.12374985624999368;piano
46.327634143750004;46.47138400000001;79;77;0.14374985625000392;piano
46.47138400000001;46.87995500000001;43;80;0.408571000000002;piano
46.47138400000001;46.612455287500005;77;74;0.1410712874999973;piano
46.612455287500005;46.75620514375;75;66;0.1437498562499968;piano
46.75620514375;46.87995500000001;72;65;0.1237498562500079;piano
46.87995500000001;47.0410262875;73;65;0.16107128749999333;piano
47.0410262875;47.14477614375001;72;65;0.10374985625000477;piano
47.14477614375001;47.288526000000005;73;67;0.1437498562499968;piano
47.288526000000005;47.657097;39;75;0.36857099999999576;piano
47.288526000000005;47.38959728750001;82;88;0.10107128750000527;piano
47.38959728750001;47.51334714375001;80;88;0.12374985625000079;piano
47.51334714375001;47.657097;79;85;0.1437498562499897;piano
47.657097;47.758168287500006;77;76;0.10107128750000527;piano
47.758168287500006;47.90191814375;79;84;0.1437498562499968;piano
47.90191814375;48.045668000000006;75;67;0.14374985625000392;piano
48.045668000000006;48.51423900000001;44;82;0.4685710000000043;piano
48.045668000000006;48.186739287500004;73;69;0.1410712874999973;piano
48.186739287500004;48.330489143750015;70;65;0.14374985625001102;piano
48.330489143750015;48.51423900000001;73;67;0.18374985624999596;piano
48.51423900000001;48.92776257500002;72;65;0.41352357500000636;piano
48.782810000000005;49.21138100000001;56;82;0.42857100000000514;piano
48.92776257500002;49.08763114375;68;65;0.15986856874998523;piano
49.08763114375;49.21138100000001;70;68;0.1237498562500079;piano
49.21138100000001;49.63995200000001;44;73;0.42857099999999804;piano
49.21138100000001;49.35245228750001;72;75;0.1410712874999973;piano
49.35245228750001;49.478101071875;70;70;0.12564878437499516;piano
49.478101071875;49.63995200000001;68;66;0.16185092812500557;piano
49.63995200000001;50.088523;49;81;0.44857099999999406;piano
49.63995200000001;49.781023287500005;66;69;0.1410712874999973;piano
49.781023287500005;49.92477314375001;65;65;0.14374985625000392;piano
49.92477314375001;50.088523;73;88;0.16374985624999283;piano
50.088523;50.457094000000005;51;78;0.36857100000000287;piano
50.088523;50.19653142916667;65;65;0.10800842916666653;piano
50.19653142916667;50.31334414375001;63;65;0.11681271458333953;piano
50.31334414375001;50.457094000000005;72;88;0.1437498562499968;piano
50.457094000000005;50.905665000000006;53;80;0.44857100000000116;piano
50.457094000000005;50.59816528750001;63;65;0.14107128750000442;piano
50.59816528750001;50.74383028750001;61;65;0.14566500000000104;piano
50.74383028750001;50.905665000000006;70;88;0.1618347124999957;piano
50.905665000000006;51.254236000000006;49;74;0.34857099999999974;piano
50.905665000000006;51.006736287500004;61;65;0.10107128749999816;piano
51.006736287500004;51.15048614375001;60;65;0.14374985625000392;piano
51.15048614375001;51.254236000000006;68;87;0.10374985624999766;piano
51.254236000000006;51.6814035;51;82;0.4271674999999959;piano
51.254236000000006;51.3953072875;67;89;0.1410712874999973;piano
51.3953072875;51.53905714375001;68;86;0.14374985625000392;piano
51.53905714375001;51.6814035;70;88;0.1423463562499947;piano
51.6814035;52.051378000000014;46;73;0.3699745000000121;piano
51.6814035;51.78387828750001;68;84;0.10247478750000738;piano
51.78387828750001;51.90762814375;67;78;0.12374985624999368;piano
51.90762814375;52.051378000000014;65;69;0.14374985625001102;piano
52.051378000000014;52.4599745;39;70;0.4085964999999874;piano
52.051378000000014;52.19244928750001;67;79;0.1410712874999973;piano
52.19244928750001;52.33619914375001;65;69;0.1437498562499968;piano
52.33619914375001;52.4599745;63;65;0.12377535624999325;piano
52.4599745;52.868520000000004;43;75;0.40854550000000245;piano
52.4599745;52.601020287500006;73;88;0.14104578750000485;piano
52.601020287500006;52.72477014375001;72;88;0.12374985625000079;piano
52.72477014375001;52.868520000000004;70;85;0.1437498562499968;piano
52.868520000000004;53.257091;44;81;0.3885709999999989;piano
52.868520000000004;52.99479564375;72;93;0.12627564374999878;piano
52.99479564375;53.09334114375001;77;88;0.09854550000000728;piano
53.09334114375001;53.257091;75;88;0.16374985624999283;piano
53.257091;53.625662000000005;48;80;0.36857100000000287;piano
53.257091;53.39816228750001;73;85;0.14107128750000442;piano
53.39816228750001;53.48191214375;72;80;0.08374985624999454;piano
53.48191214375;53.625662000000005;70;70;0.14374985625000392;piano
53.625662000000005;54.05423300000001;49;80;0.42857100000000514;piano
53.625662000000005;54.05423300000001;68;65;0.42857100000000514;piano
54.05423300000001;54.482804;51;81;0.42857099999999093;piano
54.05423300000001;54.121197218750005;67;66;0.06696421874999459;piano
54.128340068750006;54.1845900125;68;66;0.05624994374999659;piano
54.20155428125001;54.258697081250006;67;66;0.057142799999994054;piano
54.268518500000006;54.482804;68;68;0.21428549999999547;piano
54.482804;54.911375000000014;53;86;0.42857100000001225;piano
54.482804;54.911375000000014;74;89;0.42857100000001225;piano
54.911375000000014;55.145660500000005;55;82;0.2342854999999915;piano
54.911375000000014;55.501017287500005;75;83;0.5896422874999914;piano
55.145660500000005;55.35994600000001;53;77;0.21428550000000257;piano
55.35994600000001;55.74851700000001;51;73;0.3885709999999989;piano
55.501017287500005;55.60476714375001;77;82;0.10374985625000477;piano
55.60476714375001;55.74851700000001;79;84;0.1437498562499968;piano
55.74851700000001;56.137088000000006;49;72;0.3885709999999989;piano
55.74851700000001;55.889588287500004;80;84;0.1410712874999973;piano
55.889588287500004;56.03333814375001;79;81;0.14374985625000392;piano
56.03333814375001;56.137088000000006;77;75;0.10374985624999766;piano
56.137088000000006;56.54565900000001;48;77;0.408571000000002;piano
56.137088000000006;56.27815928750001;75;73;0.14107128750000442;piano
56.27815928750001;56.42190914375001;73;66;0.1437498562499968;piano
56.42190914375001;56.54565900000001;72;65;0.12374985625000079;piano
56.54565900000001;56.95423000000001;49;75;0.408571000000002;piano
56.54565900000001;56.686730287500005;77;81;0.1410712874999973;piano
56.686730287500005;56.83048014375001;75;73;0.14374985625000392;piano
56.83048014375001;56.95423000000001;73;67;0.12374985625000079;piano
56.95423000000001;57.262801;51;78;0.3085709999999935;piano
56.95423000000001;57.262801;72;66;0.3085709999999935;piano
57.262801;57.731372000000015;39;69;0.4685710000000114;piano
57.262801;57.51708650000001;70;65;0.2542855000000088;piano
57.51708650000001;57.731372000000015;68;65;0.21428550000000257;piano
57.731372000000015;58.52851400000001;44;80;0.7971419999999938;piano
57.731372000000015;57.87244328750001;68;70;0.1410712874999973;piano
57.87244328750001;58.01619314375001;63;65;0.1437498562499968;piano
58.01619314375001;58.13994300000001;68;71;0.12374985625000079;piano
58.13994300000001;58.28101428750001;72;85;0.1410712874999973;piano
58.28101428750001;58.40476414375001;75;88;0.12374985625000079;piano
58.40476414375001;58.52851400000001;79;88;0.12374985625000079;piano
58.52851400000001;58.6695852875;80;88;0.1410712874999902;piano
58.6695852875;58.81333514375001;75;84;0.14374985625001102;piano
58.81333514375001;58.897085000000004;72;71;0.08374985624999454;piano
58.897085000000004;59.03815628750001;68;65;0.14107128750000442;piano
59.03815628750001;59.181906143750005;63;65;0.1437498562499968;piano
59.181906143750005;59.32565600000001;60;65;0.14374985625000392;piano
59.32565600000001;59.539941500000005;56;83;0.21428549999999547;piano
59.32565600000001;59.65903783333333;75;93;0.33338183333331983;piano
59.539941500000005;59.65903783333333;55;77;0.11909633333332437;piano
59.65903783333333;59.86851250000001;56;78;0.20947466666667935;piano
59.65903783333333;60.25708350000001;68;69;0.5980456666666782;piano
59.86851250000001;60.042798000000005;58;80;0.17428549999999632;piano
60.042798000000005;60.49136900000001;60;83;0.44857100000000827;piano
60.25708350000001;60.49136900000001;75;85;0.2342855000000057;piano
60.49136900000001;60.89994000000001;56;74;0.4085709999999949;piano
60.49136900000001;60.685654500000005;72;78;0.19428549999999234;piano
60.685654500000005;60.89994000000001;67;68;0.21428550000000257;piano
60.89994000000001;61.32425550000001;48;71;0.42431549999999874;piano
60.89994000000001;61.1142255;68;76;0.21428549999999547;piano
61.1142255;61.32425550000001;67;70;0.21003000000000327;piano
61.32425550000001;61.482796500000006;56;79;0.1585409999999996;piano
61.32425550000001;61.91136750000001;68;74;0.5871120000000047;piano
61.482796500000006;61.69708200000001;58;82;0.21428550000000257;piano
61.69708200000001;62.12565300000001;60;84;0.42857099999999804;piano
61.91136750000001;62.12565300000001;75;85;0.21428549999999547;piano
62.12565300000001;62.497112;56;75;0.37145899999999443;piano
62.12565300000001;62.2999385;72;79;0.17428549999999632;piano
62.2999385;62.497112;67;68;0.19717349999999811;piano
62.497112;62.92279500000001;41;72;0.4256830000000065;piano
62.497112;62.63529528750001;68;76;0.13818328750000575;piano
62.63529528750001;62.77904514375001;70;77;0.14374985625000392;piano
62.77904514375001;62.92279500000001;67;69;0.1437498562499968;piano
62.92279500000001;63.11708050000001;56;81;0.19428549999999944;piano
62.92279500000001;63.52565150000001;68;73;0.6028565000000015;piano
63.11708050000001;63.31136600000001;58;83;0.19428549999999944;piano
63.31136600000001;63.73993700000001;60;84;0.42857100000000514;piano
63.52565150000001;63.73993700000001;75;86;0.21428550000000257;piano
63.73993700000001;64.12850800000001;56;76;0.3885709999999989;piano
63.73993700000001;63.91422250000001;72;79;0.17428549999999632;piano
63.91422250000001;64.12850800000001;67;68;0.21428550000000257;piano
64.12850800000001;64.557079;48;72;0.42857099999999093;piano
64.12850800000001;64.557079;68;76;0.42857099999999093;piano
64.557079;64.96366428571429;36;68;0.40658528571428576;piano
64.557079;64.96366428571429;56;65;0.40658528571428576;piano
64.96366428571429;65.314221;60;86;0.350556714285716;piano
64.96366428571429;64.97897039285715;68;80;0.015306107142862402;piano
64.97897039285715;65.0799355;67;78;0.100965107142855;piano
65.0799355;65.5285065;68;80;0.44857100000000116;piano
65.314221;65.76279200000002;48;73;0.4485710000000154;piano
65.5285065;65.63564925;72;84;0.10714274999999418;piano
65.63564925;65.76279200000002;75;87;0.12714275000001862;piano
65.76279200000002;66.151363;60;90;0.3885709999999847;piano
65.76279200000002;66.34564850000001;80;93;0.5828564999999912;piano
66.151363;66.34564850000001;63;84;0.19428550000000655;piano
66.34564850000001;66.57986800000002;65;85;0.2342195000000089;piano
66.34564850000001;66.45279124999999;75;79;0.10714274999997997;piano
66.45279124999999;66.57986800000002;73;76;0.12707675000002894;piano
66.57986800000002;67.00850500000001;66;84;0.4286369999999948;piano
66.57986800000002;66.7210052875;72;74;0.141137287499987;piano
66.7210052875;66.84951028750001;73;76;0.1285050000000041;piano
66.84951028750001;67.00850500000001;75;81;0.15899471250000374;piano
67.00850500000001;67.39707600000001;51;65;0.3885709999999989;piano
67.00850500000001;67.12957628750002;73;74;0.12107128750000129;piano
67.12957628750002;67.25332614375002;72;71;0.12374985625000079;piano
67.25332614375002;67.39707600000001;70;67;0.1437498562499968;piano
67.39707600000001;67.80564700000001;53;72;0.4085709999999949;piano
67.39707600000001;67.80564700000001;70;72;0.4085709999999949;piano
67.80564700000001;68.01993250000001;60;80;0.21428550000000257;piano
67.80564700000001;68.33528928750002;69;68;0.5296422875000104;piano
68.01993250000001;68.194218;61;82;0.17428549999999632;piano
68.194218;68.602789;63;84;0.4085709999999949;piano
68.33528928750002;68.47903914375001;70;74;0.1437498562499968;piano
68.47903914375001;68.602789;72;79;0.12374985624998658;piano
68.602789;69.01136000000001;55;68;0.4085710000000091;piano
68.602789;68.7438602875;70;74;0.1410712874999973;piano
68.7438602875;68.88761014375001;69;71;0.14374985625001102;piano
68.88761014375001;69.01136000000001;67;67;0.12374985625000079;piano
69.01136000000001;69.419931;57;78;0.4085709999999949;piano
69.01136000000001;69.15243128750001;65;69;0.1410712874999973;piano
69.15243128750001;69.29618114375;72;86;0.1437498562499968;piano
69.29618114375;69.419931;75;88;0.12374985625000079;piano
69.419931;69.828502;60;79;0.4085709999999949;piano
69.419931;69.56100228750002;69;72;0.14107128750001152;piano
69.56100228750002;69.68475214375002;75;88;0.12374985625000079;piano
69.68475214375002;69.95478664375;78;88;0.27003449999997997;piano
69.828502;70.23707300000001;65;84;0.4085710000000091;piano
69.95478664375;70.09332314375;77;88;0.13853650000000073;piano
70.09332314375;70.23707300000001;75;84;0.14374985625001102;piano
70.23707300000001;70.645644;53;68;0.4085709999999949;piano
70.23707300000001;70.35814428750001;77;87;0.12107128750000129;piano
70.35814428750001;70.48378828750002;72;68;0.1256440000000083;piano
70.48378828750002;70.7867152875;75;81;0.3029269999999826;piano
70.645644;71.03421500000002;58;81;0.3885710000000131;piano
70.7867152875;70.89046514375002;73;72;0.10374985625001898;piano
70.89046514375002;71.03421500000002;72;69;0.1437498562499968;piano
71.03421500000002;71.15764314375001;73;73;0.12342814374999023;piano
71.15764314375001;71.27903614375;70;65;0.12139299999999764;piano
71.27903614375;71.42278600000002;69;65;0.14374985625001102;piano
71.42278600000002;71.56385728750001;70;67;0.1410712874999973;piano
71.56385728750001;71.70760714375001;65;65;0.1437498562499968;piano
71.70760714375001;71.85135700000001;61;65;0.1437498562499968;piano
71.85135700000001;72.27992800000001;46;73;0.42857100000000514;piano
71.85135700000001;72.06564250000001;58;65;0.21428550000000257;piano
72.06564250000001;72.40099928750001;70;85;0.33535678750000386;piano
72.27992800000001;72.66849900000001;51;82;0.3885709999999989;piano
72.40099928750001;72.52474914375;72;87;0.12374985624998658;piano
72.52474914375;72.66849900000001;73;88;0.14374985625001102;piano
72.66849900000001;73.21707;49;76;0.5485709999999955;piano
72.66849900000001;72.80957028750001;75;88;0.1410712874999973;piano
72.80957028750001;72.93332014375001;77;88;0.12374985625000079;piano
72.93332014375001;73.21707;78;88;0.2837498562499974;piano
73.21707;73.50189114375002;48;75;0.28482114375000833;piano
73.21707;73.53849825;68;65;0.32142824999999675;piano
73.50189114375002;73.64564100000001;49;77;0.1437498562499968;piano
73.53849825;73.64564100000001;78;88;0.10714275000000839;piano
73.64564100000001;73.83992650000002;53;83;0.19428550000000655;piano
73.64564100000001;73.934212;77;88;0.28857099999999036;piano
73.83992650000002;73.934212;49;75;0.09428549999998381;piano
73.934212;74.322783;46;75;0.3885709999999989;piano
73.934212;74.07528328750001;66;69;0.14107128750001152;piano
74.07528328750001;74.17903314375002;68;66;0.10374985625000477;piano
74.17903314375002;74.322783;70;72;0.1437498562499826;piano
74.322783;74.75135400000002;51;80;0.42857100000001935;piano
74.322783;74.4638542875;72;79;0.1410712874999973;piano
74.4638542875;74.60760414375;73;82;0.1437498562499968;piano
74.60760414375;74.75135400000002;75;86;0.14374985625002523;piano
74.75135400000002;75.01617514375;45;72;0.2648211437499839;piano
74.75135400000002;75.05278225;65;65;0.3014282499999865;piano
75.01617514375;75.159925;46;74;0.1437498562499968;piano
75.05278225;75.159925;75;88;0.10714274999999418;piano
75.159925;75.3742105;49;79;0.21428550000000257;piano
75.159925;75.588496;73;85;0.42857100000000514;piano
75.3742105;75.588496;46;74;0.21428550000000257;piano
75.588496;75.97706700000002;54;93;0.3885710000000131;piano
75.588496;75.70956728750001;63;69;0.12107128750000129;piano
75.70956728750001;75.85331714375;73;85;0.1437498562499968;piano
75.85331714375;75.97706700000002;72;82;0.123749856250015;piano
75.97706700000002;76.385638;53;84;0.4085709999999807;piano
75.97706700000002;76.11813828750002;61;65;0.1410712874999973;piano
76.11813828750002;76.24188814375;72;85;0.12374985624998658;piano
76.24188814375;76.385638;70;79;0.1437498562499968;piano
76.385638;76.70706625000003;51;78;0.3214282500000252;piano
76.385638;76.5267092875;60;65;0.1410712874999973;piano
76.5267092875;76.65045914375001;70;84;0.123749856250015;piano
76.65045914375001;76.814209;69;80;0.16374985624999283;piano
76.70706625000003;76.814209;54;87;0.10714274999997997;piano
76.814209;77.127818625;60;88;0.313609624999998;piano
76.814209;76.9552802875;66;68;0.1410712874999973;piano
76.9552802875;77.09903014375;65;67;0.1437498562499968;piano
77.09903014375;77.22278000000001;64;66;0.123749856250015;piano
77.127818625;77.22278000000001;58;88;0.09496137500001112;piano
77.22278000000001;77.651351;57;89;0.42857099999999093;piano
77.22278000000001;77.36385128750001;65;73;0.1410712874999973;piano
77.36385128750001;77.50760114375001;66;74;0.1437498562499968;piano
77.50760114375001;77.651351;64;67;0.1437498562499968;piano
77.651351;78.03992200000002;53;71;0.3885710000000131;piano
77.651351;78.18099328750002;65;72;0.5296422875000104;piano
78.03992200000002;78.46849300000001;53;73;0.42857099999999093;piano
78.18099328750002;78.32474314375;60;65;0.1437498562499826;piano
78.32474314375;78.46849300000001;58;65;0.14374985625001102;piano
78.46849300000001;78.83706400000001;41;68;0.36857100000000287;piano
78.46849300000001;78.53912857500002;57;65;0.07063557500001139;piano
78.53912857500002;78.69331414375002;58;66;0.15418556874999467;piano
78.69331414375002;78.83706400000001;60;73;0.1437498562499968;piano
78.83706400000001;79.26563500000002;51;85;0.42857100000000514;piano
78.83706400000001;79.26563500000002;53;85;0.42857100000000514;piano
78.97813528750001;79.12188514375002;69;88;0.14374985625001102;piano
79.12188514375002;79.26563500000002;70;88;0.1437498562499968;piano
79.26563500000002;79.67420600000001;41;70;0.4085709999999949;piano
79.26563500000002;79.40670628750001;72;88;0.1410712874999973;piano
79.40670628750001;79.53045614375002;69;87;0.12374985625000079;piano
79.53045614375002;79.67420600000001;63;68;0.1437498562499968;piano
79.67420600000001;80.08277700000001;51;84;0.4085709999999949;piano
79.67420600000001;80.08277700000001;53;84;0.4085709999999949;piano
79.79763864375;79.93902714375001;69;86;0.14138850000000502;piano
79.93902714375001;80.08277700000001;70;87;0.1437498562499968;piano
80.08277700000001;80.455674;41;71;0.3728969999999947;piano
80.08277700000001;80.20384828750001;72;88;0.12107128750000129;piano
80.20384828750001;80.32759814375;69;80;0.12374985624998658;piano
80.32759814375;80.455674;63;65;0.12807585625000684;piano
80.455674;80.8599595;49;89;0.4042855000000003;piano
80.455674;80.8599595;53;89;0.4042855000000003;piano
80.59241928750001;80.73616914375;70;84;0.1437498562499968;piano
80.73616914375;80.8599595;72;87;0.12379035624999801;piano
80.8599595;81.28849000000001;41;71;0.4285305000000079;piano
80.8599595;81.00099028750002;73;87;0.1410307875000143;piano
81.00099028750002;81.14474014375001;70;78;0.1437498562499968;piano
81.14474014375001;81.28849000000001;65;65;0.1437498562499968;piano
81.28849000000001;81.67706100000002;49;84;0.3885710000000131;piano
81.28849000000001;81.67706100000002;53;84;0.3885710000000131;piano
81.42956128750001;81.53777038125001;70;79;0.10820909375000554;piano
81.53777038125001;81.67706100000002;72;85;0.13929061875001025;piano
81.67706100000002;82.12563200000001;41;71;0.44857099999998695;piano
81.67706100000002;81.8181322875;73;86;0.1410712874999831;piano
81.8181322875;81.98188214375001;70;75;0.16374985625000704;piano
81.98188214375001;82.12563200000001;65;65;0.1437498562499968;piano
82.12563200000001;82.51420300000001;48;89;0.3885709999999989;piano
82.12563200000001;82.51420300000001;51;89;0.3885709999999989;piano
82.12563200000001;82.51420300000001;53;89;0.3885709999999989;piano
82.26670328750001;82.39045314375002;72;84;0.123749856250015;piano
82.39045314375002;82.51420300000001;73;85;0.12374985624998658;piano
82.51420300000001;82.92277400000002;41;71;0.4085710000000091;piano
82.51420300000001;82.6552742875;75;88;0.1410712874999973;piano
82.6552742875;82.77902414375001;72;79;0.12374985625000079;piano
82.77902414375001;82.92277400000002;69;68;0.14374985625001102;piano
82.92277400000002;83.33134500000001;48;84;0.4085709999999949;piano
82.92277400000002;83.33134500000001;51;84;0.4085709999999949;piano
82.92277400000002;83.33134500000001;53;84;0.4085709999999949;piano
83.06384528750002;83.20759514375001;72;79;0.1437498562499968;piano
83.20759514375001;83.33134500000001;73;82;0.12374985625000079;piano
83.33134500000001;83.73991600000001;41;71;0.4085709999999949;piano
83.33134500000001;83.45620814374999;75;86;0.12486314374997676;piano
83.45620814374999;83.59616614375001;72;75;0.13995800000002134;piano
83.59616614375001;83.73991600000001;69;66;0.1437498562499968;piano
83.73991600000001;84.168487;46;89;0.42857099999999093;piano
83.73991600000001;84.168487;53;89;0.42857099999999093;piano
83.8809872875;84.02473714375;73;80;0.1437498562499968;piano
84.02473714375;84.168487;75;85;0.1437498562499968;piano
84.168487;84.55705800000001;41;71;0.3885710000000131;piano
84.168487;84.30955828750001;77;88;0.14107128750001152;piano
84.30955828750001;84.43330814375001;73;75;0.12374985625000079;piano
84.43330814375001;84.55705800000001;70;66;0.12374985625000079;piano
84.55705800000001;84.98562900000002;46;84;0.42857100000000514;piano
84.55705800000001;84.98562900000002;53;84;0.42857100000000514;piano
84.69812928750001;84.84187914375002;73;77;0.14374985625001102;piano
84.84187914375002;84.98562900000002;75;84;0.1437498562499968;piano
84.98562900000002;85.3742;41;71;0.3885709999999847;piano
84.98562900000002;85.1067002875;77;87;0.12107128749998708;piano
85.1067002875;85.23045014375;73;73;0.12374985625000079;piano
85.23045014375;85.3742;70;65;0.1437498562499968;piano
85.3742;85.802771;48;89;0.42857100000000514;piano
85.3742;85.802771;51;89;0.42857100000000514;piano
85.3742;85.802771;53;89;0.42857100000000514;piano
85.51527128750001;85.65902114375001;75;82;0.1437498562499968;piano
85.65902114375001;85.802771;77;86;0.1437498562499968;piano
85.802771;86.21134200000002;41;71;0.4085710000000091;piano
85.802771;85.9438422875;78;87;0.1410712874999973;piano
85.9438422875;86.06759214375;75;77;0.12374985625000079;piano
86.06759214375;86.21134200000002;72;67;0.14374985625001102;piano
86.21134200000002;86.599913;48;84;0.3885709999999847;piano
86.21134200000002;86.599913;51;84;0.3885709999999847;piano
86.21134200000002;86.599913;53;84;0.3885709999999847;piano
86.35241328750001;86.49616314375001;75;78;0.1437498562499968;piano
86.49616314375001;86.599913;77;84;0.10374985624999056;piano
86.599913;87.028484;41;71;0.42857100000000514;piano
86.599913;86.74098428750001;78;85;0.14107128750001152;piano
86.74098428750001;86.88473414375001;75;74;0.1437498562499968;piano
86.88473414375001;87.028484;72;66;0.1437498562499968;piano
87.028484;87.45705500000001;46;89;0.42857100000000514;piano
87.028484;87.45705500000001;53;89;0.42857100000000514;piano
87.1695552875;87.31330514375;73;69;0.1437498562499968;piano
87.31330514375;87.45705500000001;75;77;0.14374985625001102;piano
87.45705500000001;87.825626;41;71;0.36857099999998866;piano
87.45705500000001;87.55812628750002;77;84;0.10107128750000527;piano
87.55812628750002;87.70187614375001;73;68;0.1437498562499968;piano
87.70187614375001;87.825626;70;65;0.12374985624998658;piano
87.825626;88.23419700000001;46;84;0.4085710000000091;piano
87.825626;88.23419700000001;49;84;0.4085710000000091;piano
87.825626;88.23419700000001;53;84;0.4085710000000091;piano
87.9666972875;88.09044714375001;73;73;0.123749856250015;piano
88.09044714375001;88.23419700000001;75;81;0.1437498562499968;piano
88.23419700000001;88.68276800000002;41;71;0.4485710000000154;piano
88.23419700000001;88.3752682875;77;86;0.1410712874999973;piano
88.3752682875;88.51901814375;73;71;0.1437498562499968;piano
88.51901814375;88.68276800000002;70;65;0.16374985625002125;piano
88.68276800000002;89.05133900000001;51;89;0.36857099999998866;piano
88.68276800000002;89.05133900000001;53;89;0.36857099999998866;piano
88.80383928750001;88.94758914375001;72;71;0.1437498562499968;piano
88.94758914375001;89.05133900000001;73;76;0.10374985625000477;piano
89.05133900000001;89.47991000000002;41;71;0.42857100000000514;piano
89.05133900000001;89.19241028750001;75;83;0.1410712874999973;piano
89.19241028750001;89.33616014375002;72;71;0.14374985625001102;piano
89.33616014375002;89.47991000000002;70;66;0.1437498562499968;piano
89.47991000000002;89.888481;48;84;0.4085709999999807;piano
89.47991000000002;89.888481;51;84;0.4085709999999807;piano
89.47991000000002;89.888481;53;84;0.4085709999999807;piano
89.62098128750002;89.76473114375001;72;74;0.1437498562499968;piano
89.76473114375001;89.888481;73;78;0.12374985624998658;piano
89.888481;90.27705200000001;41;71;0.3885710000000131;piano
89.888481;90.02955228750001;75;85;0.14107128750001152;piano
90.02955228750001;90.13330214375002;72;73;0.10374985625000477;piano
90.13330214375002;90.27705200000001;70;67;0.1437498562499968;piano
90.27705200000001;90.70562300000002;48;89;0.42857100000000514;piano
90.27705200000001;90.70562300000002;51;89;0.42857100000000514;piano
90.27705200000001;90.70562300000002;53;89;0.42857100000000514;piano
90.41812328750001;90.56187314375002;72;75;0.14374985625001102;piano
90.56187314375002;90.70562300000002;73;79;0.1437498562499968;piano
90.70562300000002;91.094194;41;71;0.3885709999999847;piano
90.70562300000002;90.84669428750001;75;85;0.1410712874999973;piano
90.84669428750001;90.97044414375002;72;73;0.12374985625000079;piano
90.97044414375002;91.094194;69;65;0.12374985624998658;piano
91.094194;91.522765;48;84;0.42857100000000514;piano
91.094194;91.522765;51;84;0.42857100000000514;piano
91.094194;91.522765;53;84;0.42857100000000514;piano
91.23526528750001;91.37901514375001;72;76;0.1437498562499968;piano
91.37901514375001;91.522765;73;80;0.1437498562499968;piano
91.522765;91.97133600000002;41;71;0.4485710000000154;piano
91.522765;91.6638362875;75;85;0.1410712874999973;piano
91.6638362875;91.80758614375;72;74;0.1437498562499968;piano
91.80758614375;91.90133605000003;69;65;0.0937499062500251;piano
91.90133605000003;91.97133600000002;75;79;0.06999994999999615;piano
91.97133600000002;92.39990700000001;46;81;0.42857099999999093;piano
91.97133600000002;92.03830021875002;73;79;0.06696421875000169;piano
92.05883591250002;92.12580013125002;75;79;0.06696421875000169;piano
92.14187154375001;92.20883576250002;73;79;0.06696421875000169;piano
92.22580003125002;92.29276425;75;79;0.06696421874998748;piano
92.30615709375;92.36954988750001;73;79;0.06339279375001183;piano
92.38651415625;92.44990695;75;79;0.06339279374999762;piano
92.39990700000001;92.51419250000001;58;87;0.11428549999999404;piano
92.461649896875;92.48480280375001;73;79;0.023152906875012036;piano
92.4881956575;92.50079965625001;75;79;0.012603998750009282;piano
92.51419250000001;92.72847800000001;60;86;0.21428550000000257;piano
92.51776392500001;92.57758529375;73;79;0.05982136874999355;piano
92.5909781375;92.64812093750001;75;79;0.057142800000008265;piano
92.66508520625001;92.72222800625;73;79;0.057142799999994054;piano
92.72847800000001;93.07704900000002;61;85;0.34857100000000685;piano
92.73562085;92.78919222500001;75;79;0.053571375000004195;piano
92.8052636375;92.85883501250001;73;79;0.053571375000004195;piano
92.87937070625001;92.92330270125001;75;79;0.04393199499999412;piano
92.92651698375;92.93794554375;73;79;0.01142855999999881;piano
92.95026341250001;93.01008478125001;75;79;0.059821368750007764;piano
93.02704905000002;93.08687041875001;73;79;0.05982136874999355;piano
93.07704900000002;93.52562;58;78;0.44857099999998695;piano
93.10740611250002;93.17079890625003;75;79;0.06339279375001183;piano
93.18776317500003;93.25115596875001;73;79;0.06339279374998341;piano
93.27169166250002;93.33865588125;75;79;0.06696421874998748;piano
93.35472729375002;93.43088303750002;73;83;0.07615574375000733;piano
93.52562;93.93419100000001;42;72;0.4085710000000091;piano
93.52562;93.6666912875;73;81;0.1410712874999973;piano
93.6666912875;93.81044114375001;75;78;0.14374985625001102;piano
93.81044114375001;93.93419100000001;73;75;0.12374985625000079;piano
93.93419100000001;94.07526228750001;72;73;0.1410712874999973;piano
94.07526228750001;94.21901214375;73;76;0.1437498562499968;piano
94.21901214375;94.36276200000002;70;68;0.14374985625001102;piano
94.36276200000002;94.56383328750002;75;84;0.20107128749999958;piano
94.56383328750002;94.62758314375002;77;87;0.06374985624999852;piano
94.62758314375002;94.77133300000001;75;81;0.1437498562499968;piano
94.77133300000001;94.91240428750001;73;73;0.1410712874999973;piano
94.91240428750001;95.07230828750004;75;81;0.1599040000000258;piano
95.07230828750004;95.16990405000001;72;68;0.09759576249997792;piano
95.16990405000001;95.21990400000001;78;86;0.049999950000000126;piano
95.21990400000001;95.54847500000001;49;81;0.3285709999999966;piano
95.21990400000001;95.26895607291668;77;86;0.049052072916666134;piano
95.27580130416668;95.33436813125002;78;86;0.05856682708333949;piano
95.3426098859375;95.359350940625;77;86;0.016741054687500423;piano
95.37436803125;95.44133225000002;78;86;0.0669642187500159;piano
95.45472509375;95.5181178875;77;86;0.06339279374999762;piano
95.53508215625001;95.59847495;78;86;0.06339279374998341;piano
95.54847500000001;95.7427605;58;81;0.19428549999999234;piano
95.61186779375002;95.67258201875002;77;86;0.06071422499999812;piano
95.68954628750002;95.72936765625;78;86;0.03982136874998332;piano
95.7427605;95.957046;60;82;0.21428550000000257;piano
95.746331925;95.80615329375;77;86;0.05982136874999355;piano
95.81954613750001;95.8766889375;78;86;0.057142799999994054;piano
95.89365320625002;95.95079600625;77;86;0.05714279999997984;piano
95.957046;96.28561700000002;61;83;0.3285710000000108;piano
95.96418885000001;96.017760225;78;86;0.053571374999989985;piano
96.03383163750001;96.0691343375;77;86;0.03530269999998836;piano
96.07597956875;96.09502716875;78;86;0.01904759999999328;piano
96.100576459375;96.13829571875002;77;86;0.03771925937500953;piano
96.1588314125;96.21865278125001;78;86;0.059821368750007764;piano
96.23561705000002;96.29543841875001;77;86;0.05982136874999355;piano
96.28561700000002;96.75418800000001;58;76;0.4685709999999972;piano
96.31597411250002;96.37936690625001;78;86;0.06339279374999762;piano
96.39633117500001;96.45972396875001;77;86;0.06339279374999762;piano
96.48051932500003;96.58722388125001;78;86;0.10670455624997999;piano
96.60329529375001;96.66400951875;77;91;0.06071422499999812;piano
96.75418800000001;97.16275900000001;51;72;0.4085709999999949;piano
96.75418800000001;96.87525928750001;77;82;0.12107128750000129;piano
96.87525928750001;97.01900914375001;78;78;0.1437498562499968;piano
97.01900914375001;97.16275900000001;77;76;0.1437498562499968;piano
97.16275900000001;97.34383028750001;75;72;0.18107128750000356;piano
97.34383028750001;97.48758014375001;77;77;0.1437498562499968;piano
97.48758014375001;97.5778325;74;69;0.09025235624999084;piano
97.5778325;97.71240128750001;78;82;0.13456878750001522;piano
97.71240128750001;97.83615114375002;80;86;0.12374985625000079;piano
97.83615114375002;97.97990100000001;78;79;0.1437498562499968;piano
97.97990100000001;98.12097228750002;77;75;0.14107128750001152;piano
98.12097228750002;98.24472214375001;78;79;0.12374985624998658;piano
98.24472214375001;98.38847200000001;75;68;0.1437498562499968;piano
98.38847200000001;98.79704300000002;41;80;0.4085710000000091;piano
98.38847200000001;98.5295432875;81;93;0.1410712874999973;piano
98.5295432875;98.67329314375002;84;88;0.14374985625001102;piano
98.67329314375002;98.79704300000002;82;87;0.12374985625000079;piano
98.79704300000002;98.99132850000001;53;82;0.19428549999999234;piano
98.79704300000002;98.91811428750002;81;84;0.12107128750000129;piano
98.91811428750002;99.06186414375001;78;70;0.1437498562499968;piano
98.99132850000001;99.20561400000001;55;83;0.21428550000000257;piano
99.06186414375001;99.20561400000001;77;67;0.1437498562499968;piano
99.20561400000001;99.59418500000001;57;84;0.3885709999999989;piano
99.20561400000001;99.34668528750001;75;65;0.1410712874999973;piano
99.34668528750001;99.49043514375002;78;74;0.14374985625001102;piano
99.49043514375002;99.59418500000001;77;70;0.10374985624999056;piano
99.59418500000001;100.02275600000002;53;76;0.42857100000000514;piano
99.59418500000001;99.73525628750001;75;65;0.1410712874999973;piano
99.73525628750001;99.87900614375;73;65;0.1437498562499968;piano
99.87900614375;100.02275600000002;72;65;0.14374985625001102;piano
100.02275600000002;100.451327;46;74;0.42857099999999093;piano
100.02275600000002;100.16382728750001;73;69;0.1410712874999973;piano
100.16382728750001;100.30757714375001;69;65;0.1437498562499968;piano
100.30757714375001;100.451327;70;65;0.1437498562499968;piano
100.451327;100.87989800000001;48;73;0.42857100000000514;piano
100.451327;100.5923982875;75;81;0.1410712874999973;piano
100.5923982875;100.73614814375001;69;65;0.14374985625001102;piano
100.73614814375001;100.87989800000001;70;65;0.1437498562499968;piano
100.87989800000001;101.288469;49;75;0.4085709999999949;piano
100.87989800000001;101.00096928750001;77;88;0.12107128750000129;piano
101.00096928750001;101.14471914375001;69;65;0.1437498562499968;piano
101.14471914375001;101.288469;70;67;0.1437498562499968;piano
101.288469;101.67704000000002;51;78;0.3885710000000131;piano
101.288469;101.40954028750002;78;88;0.1210712875000155;piano
101.40954028750002;101.53329014375002;69;65;0.12374985625000079;piano
101.53329014375002;101.67704000000002;70;68;0.1437498562499968;piano
101.67704000000002;102.08561100000001;58;90;0.4085709999999949;piano
101.67704000000002;101.8181112875;61;69;0.1410712874999831;piano
101.8181112875;101.96186114375001;69;71;0.14374985625001102;piano
101.96186114375001;102.08561100000001;70;76;0.12374985625000079;piano
102.08561100000001;102.49418200000001;60;84;0.4085709999999949;piano
102.08561100000001;102.22668228750001;63;65;0.1410712874999973;piano
102.22668228750001;102.37043214375001;69;77;0.1437498562499968;piano
102.37043214375001;102.49418200000001;70;82;0.12374985625000079;piano
102.49418200000001;102.88275300000001;61;82;0.3885709999999989;piano
102.49418200000001;102.5984177625;65;65;0.10423576249999655;piano
102.5984177625;102.73900314375001;69;80;0.14058538125000553;piano
102.73900314375001;102.88275300000001;70;84;0.1437498562499968;piano
102.88275300000001;103.31132400000001;63;82;0.42857100000000514;piano
102.88275300000001;103.0238242875;66;67;0.1410712874999973;piano
103.0238242875;103.16757414375;69;80;0.1437498562499968;piano
103.16757414375;103.31132400000001;70;84;0.14374985625001102;piano
103.31132400000001;104.18543026875003;66;93;0.8741062687500118;piano
103.31132400000001;104.18543026875003;70;93;0.8741062687500118;piano
103.31132400000001;104.16846600000001;75;93;0.8571419999999961;piano
103.47239528750002;103.61614514375002;60;75;0.1437498562499968;piano
103.61614514375002;103.739895;61;77;0.12374985624998658;piano
103.739895;103.88096628750002;63;80;0.14107128750001152;piano
103.88096628750002;104.02471614375001;65;84;0.1437498562499968;piano
104.02471614375001;104.16846600000001;66;85;0.1437498562499968;piano
104.16846600000001;104.55703700000002;58;65;0.3885710000000131;piano
104.16846600000001;104.27941150625001;75;85;0.11094550625000466;piano
104.28953728750001;104.41328714375001;70;74;0.12374985625000079;piano
104.41328714375001;104.55703700000002;68;69;0.14374985625001102;piano
104.55703700000002;104.69810828750002;66;67;0.1410712874999973;piano
104.69810828750002;104.80185814375001;65;66;0.10374985624999056;piano
104.80185814375001;104.92560800000001;63;65;0.12374985625000079;piano
104.92560800000001;105.92127376250001;65;93;0.9956657624999963;piano
104.9644787275;105.92127376250001;72;93;0.9567950350000132;piano
104.97733585750001;105.15214571875009;57;69;0.17480986125008258;piano
104.98007213125003;105.92127376250001;75;93;0.9412016312499816;piano
105.15214571875009;105.37417900000001;58;72;0.22203328124992083;piano
105.37417900000001;105.51525028750001;60;77;0.1410712874999973;piano
105.51525028750001;105.63900014375001;61;80;0.12374985625000079;piano
105.63900014375001;105.78275000000002;63;84;0.14374985625001102;piano
105.78275000000002;106.17132100000002;53;65;0.3885709999999989;piano
105.92127376250001;106.02757114375001;72;81;0.10629738125000188;piano
106.02757114375001;106.17132100000002;70;76;0.14374985625001102;piano
106.17132100000002;106.3123922875;69;74;0.1410712874999831;piano
106.3123922875;106.45614214375001;67;69;0.14374985625001102;piano
106.45614214375001;106.59989200000001;65;67;0.1437498562499968;piano
106.59989200000001;106.98846300000001;46;71;0.3885709999999989;piano
106.59989200000001;106.74096328750001;73;92;0.1410712874999973;piano
106.74096328750001;106.84471314375001;70;79;0.10374985625000477;piano
106.84471314375001;106.98846300000001;68;72;0.1437498562499968;piano
106.98846300000001;107.37703400000001;51;73;0.3885709999999989;piano
106.98846300000001;107.12953428750002;66;67;0.14107128750001152;piano
107.12953428750002;107.256642071875;65;66;0.12710778437498504;piano
107.256642071875;107.37703400000001;63;65;0.12039192812500232;piano
107.37703400000001;107.78560500000002;44;71;0.4085710000000091;piano
107.37703400000001;107.49810528750001;72;88;0.12107128750000129;piano
107.49810528750001;107.64185514375002;68;77;0.14374985625001102;piano
107.64185514375002;107.78560500000002;66;68;0.1437498562499968;piano
107.78560500000002;108.13417600000001;49;77;0.34857099999999264;piano
107.78560500000002;107.90667628750002;65;67;0.12107128750000129;piano
107.90667628750002;108.05042614375002;63;65;0.1437498562499968;piano
108.05042614375002;108.13417600000001;61;65;0.08374985624999454;piano
108.13417600000001;108.50274700000001;42;77;0.36857100000000287;piano
108.13417600000001;108.27524728750002;70;93;0.14107128750001152;piano
108.27524728750002;108.40949857187502;66;75;0.13425128437499723;piano
108.40949857187502;108.50274700000001;65;71;0.09324842812499412;piano
108.50274700000001;108.89131800000003;54;85;0.3885710000000131;piano
108.50274700000001;108.64381828750001;63;66;0.1410712874999973;piano
108.64381828750001;108.78756814375001;61;65;0.1437498562499968;piano
108.78756814375001;108.89131800000003;60;65;0.10374985625001898;piano
108.89131800000003;109.27988900000001;53;81;0.3885709999999847;piano
108.89131800000003;109.02619464375;69;88;0.1348766437499762;piano
109.02619464375;109.13613914375001;65;78;0.10994450000001166;piano
109.13613914375001;109.27988900000001;67;85;0.1437498562499968;piano
109.27988900000001;109.68846000000002;60;85;0.4085710000000091;piano
109.27988900000001;109.40096028750001;69;88;0.12107128750000129;piano
109.40096028750001;109.54471014375002;70;88;0.14374985625001102;piano
109.54471014375002;109.68846000000002;72;88;0.1437498562499968;piano
109.68846000000002;110.09703100000002;57;84;0.4085709999999949;piano
109.68846000000002;109.8295312875;72;93;0.1410712874999831;piano
109.8295312875;109.95328114375;69;82;0.12374985625000079;piano
109.95328114375;110.09703100000002;70;84;0.14374985625001102;piano
110.09703100000002;110.48560200000001;53;73;0.3885709999999989;piano
110.09703100000002;110.21810228750002;72;88;0.12107128750000129;piano
110.21810228750002;110.36185214375001;73;88;0.1437498562499968;piano
110.36185214375001;110.48560200000001;75;88;0.12374985625000079;piano
110.48560200000001;110.87417300000001;48;70;0.3885709999999989;piano
110.48560200000001;110.62667328750001;75;88;0.1410712874999973;piano
110.62667328750001;110.77042314375002;78;88;0.14374985625001102;piano
110.77042314375002;110.87417300000001;77;88;0.10374985624999056;piano
110.87417300000001;111.26274400000003;45;71;0.3885710000000131;piano
110.87417300000001;111.01524428750001;75;84;0.1410712874999973;piano
111.01524428750001;111.15899414375001;73;73;0.1437498562499968;piano
111.15899414375001;111.26274400000003;72;69;0.10374985625001898;piano
111.26274400000003;111.61131500000002;46;78;0.34857099999999264;piano
111.26274400000003;111.40381528750002;73;78;0.1410712874999973;piano
111.40381528750002;111.50756514375001;77;88;0.10374985624999056;piano
111.50756514375001;111.61131500000002;75;80;0.10374985625000477;piano
111.61131500000002;111.97988600000002;51;80;0.36857100000000287;piano
111.61131500000002;111.75238628750002;73;70;0.1410712874999973;piano
111.75238628750002;111.878068071875;72;67;0.12568178437499;piano
111.878068071875;111.97988600000002;70;65;0.10181792812501556;piano
111.97988600000002;112.34845700000001;53;82;0.36857099999998866;piano
111.97988600000002;112.34845700000001;70;65;0.36857099999998866;piano
112.34845700000001;112.85108400000004;41;70;0.5026270000000324;piano
112.34845700000001;112.69977050000004;69;66;0.3513135000000318;piano
112.69977050000004;112.85108400000004;70;78;0.15131350000000054;piano
112.85108400000004;113.28559900000002;46;80;0.4345149999999762;piano
112.85108400000004;113.28559900000002;76;93;0.4345149999999762;piano
113.28559900000002;113.49988450000002;45;75;0.21428550000000257;piano
113.28559900000002;113.79524128750002;77;85;0.5096422875000002;piano
113.49988450000002;113.65417000000001;43;74;0.1542854999999861;piano
113.65417000000001;114.08274100000001;45;76;0.42857100000000514;piano
113.79524128750002;113.93899114375002;79;84;0.1437498562499968;piano
113.93899114375002;114.08274100000001;81;85;0.1437498562499968;piano
114.08274100000001;114.67238328750003;49;82;0.5896422875000127;piano
114.08274100000001;114.2438122875;82;85;0.16107128749999333;piano
114.2438122875;114.39512428750001;80;79;0.15131200000000433;piano
114.39512428750001;114.55131200000002;78;73;0.15618771250001373;piano
114.55131200000002;114.67238328750003;77;74;0.12107128750000129;piano
114.67238328750003;114.81613314375001;48;78;0.1437498562499826;piano
114.67238328750003;114.81613314375001;75;66;0.1437498562499826;piano
114.81613314375001;114.959883;46;75;0.1437498562499968;piano
114.81613314375001;114.959883;73;65;0.1437498562499968;piano
114.959883;115.12095428750001;51;84;0.16107128750000754;piano
114.959883;115.12095428750001;78;79;0.16107128750000754;piano
115.12095428750001;115.26470414375002;53;86;0.14374985625001102;piano
115.12095428750001;115.26470414375002;77;75;0.14374985625001102;piano
115.26470414375002;115.41690800000003;54;87;0.15220385625001143;piano
115.26470414375002;115.41690800000003;75;68;0.15220385625001143;piano
115.41690800000003;115.83702500000003;53;84;0.4201169999999905;piano
115.41690800000003;115.83702500000003;73;65;0.4201169999999905;piano
115.83702500000003;116.26559600000002;41;66;0.42857099999999093;piano
115.83702500000003;116.15845325000001;72;66;0.32142824999998254;piano
116.15845325000001;116.26559600000002;70;65;0.10714275000000839;piano
116.26559600000002;116.69416700000002;46;77;0.42857100000000514;piano
116.26559600000002;116.40666728750001;70;70;0.1410712874999973;piano
116.40666728750001;116.55041714375002;73;75;0.14374985625001102;piano
116.55041714375002;116.69416700000002;70;67;0.1437498562499968;piano
116.69416700000002;116.79523828750001;65;65;0.10107128749999106;piano
116.79523828750001;116.93898814375001;70;73;0.1437498562499968;piano
116.93898814375001;117.08273800000002;65;65;0.14374985625001102;piano
117.08273800000002;117.22380928750002;61;65;0.1410712874999973;piano
117.22380928750002;117.36755914375001;70;84;0.1437498562499968;piano
117.36755914375001;117.47130900000002;65;66;0.10374985625000477;piano
117.47130900000002;117.63238028750001;61;65;0.16107128749999333;piano
117.63238028750001;117.73613014375002;65;70;0.10374985625000477;piano
117.73613014375002;117.87988000000001;61;65;0.1437498562499968;piano
117.87988000000001;118.28845100000001;58;69;0.4085709999999949;piano
118.09416550000002;118.28845100000001;57;78;0.19428549999999234;piano
118.28845100000001;118.52273650000001;58;78;0.2342854999999986;piano
118.28845100000001;118.92565375000001;70;88;0.6372027500000002;piano
118.52273650000001;118.73702200000001;60;79;0.21428550000000257;piano
118.73702200000001;119.04559300000003;61;80;0.3085710000000148;piano
118.92565375000001;119.04559300000003;77;88;0.11993925000001582;piano
119.04559300000003;119.43416400000001;58;74;0.3885709999999847;piano
119.04559300000003;119.21987850000002;73;84;0.17428549999999632;piano
119.21987850000002;119.43416400000001;69;74;0.21428549999998836;piano
119.43416400000001;119.82273500000001;42;72;0.3885709999999989;piano
119.43416400000001;119.62844950000002;70;81;0.19428550000000655;piano
119.62844950000002;119.82273500000001;69;73;0.19428549999999234;piano
119.82273500000001;120.01702050000002;58;81;0.19428550000000655;piano
119.82273500000001;120.4455915;70;75;0.6228564999999975;piano
120.01702050000002;120.23130600000002;60;83;0.21428550000000257;piano
120.23130600000002;120.63987700000001;61;84;0.4085709999999949;piano
120.4455915;120.63987700000001;77;85;0.19428550000000655;piano
120.63987700000001;121.02844800000001;58;76;0.3885709999999989;piano
120.63987700000001;120.83416250000002;73;77;0.19428550000000655;piano
120.83416250000002;121.02844800000001;69;69;0.19428549999999234;piano
121.02844800000001;121.45701900000002;49;71;0.42857100000000514;piano
121.02844800000001;121.16951928750001;70;77;0.1410712874999973;piano
121.16951928750001;121.31326914375;71;75;0.1437498562499968;piano
121.31326914375;121.45701900000002;69;70;0.14374985625001102;piano
121.45701900000002;121.65130450000001;58;80;0.19428549999999234;piano
121.45701900000002;122.05987550000002;70;74;0.6028565000000015;piano
121.65130450000001;121.862795;60;83;0.21149049999999647;piano
121.862795;122.23416100000001;61;84;0.37136600000000897;piano
122.05987550000002;122.23416100000001;77;86;0.17428549999999632;piano
122.23416100000001;122.64273200000001;58;76;0.4085709999999949;piano
122.23416100000001;122.44844650000002;73;78;0.21428550000000257;piano
122.44844650000002;122.64273200000001;70;70;0.19428549999999234;piano
122.64273200000001;123.03130300000002;51;72;0.3885710000000131;piano
122.64273200000001;123.03130300000002;70;92;0.3885710000000131;piano
122.64273200000001;123.03130300000002;75;92;0.3885710000000131;piano
122.64273200000001;123.03130300000002;78;92;0.3885710000000131;piano
123.03130300000002;123.47987400000002;39;68;0.44857100000000116;piano
123.03130300000002;123.47987400000002;66;79;0.44857100000000116;piano
123.03130300000002;123.47987400000002;70;79;0.44857100000000116;piano
123.03130300000002;123.47987400000002;75;79;0.44857100000000116;piano
123.47987400000002;123.60094528750001;78;82;0.12107128749998708;piano
123.60094528750001;123.76469514375002;75;75;0.16374985625000704;piano
123.76469514375002;123.90844500000001;74;73;0.1437498562499968;piano
123.90844500000001;124.23701600000001;75;76;0.3285709999999966;piano
124.23701600000001;124.62558700000002;44;80;0.3885710000000131;piano
124.23701600000001;124.62558700000002;68;69;0.3885710000000131;piano
124.62558700000002;124.83987250000004;56;84;0.21428550000001678;piano
124.62558700000002;125.24844350000002;68;67;0.6228564999999975;piano
124.83987250000004;125.034158;58;84;0.19428549999996392;piano
125.034158;125.42272900000002;60;84;0.3885710000000131;piano
125.24844350000002;125.42272900000002;75;81;0.17428549999999632;piano
125.42272900000002;125.8313;56;76;0.4085709999999807;piano
125.42272900000002;125.61701450000001;72;76;0.19428549999999234;piano
125.61701450000001;125.8313;67;68;0.21428549999998836;piano
125.8313;126.2199355;41;72;0.3886355000000066;piano
125.8313;126.02558550000002;68;75;0.19428550000002076;piano
126.02558550000002;126.2199355;67;70;0.1943499999999858;piano
126.2199355;126.43415650000003;56;82;0.2142210000000233;piano
126.2199355;126.84272750000002;68;74;0.6227920000000182;piano
126.43415650000003;126.64844200000003;58;83;0.21428550000000257;piano
126.64844200000003;127.03701300000002;60;84;0.3885709999999847;piano
126.84272750000002;127.03701300000002;75;85;0.19428549999999234;piano
127.03701300000002;127.42558400000003;56;76;0.3885710000000131;piano
127.03701300000002;127.21564925;72;79;0.1786362499999825;piano
127.21564925;127.42558400000003;67;68;0.2099347500000306;piano
127.42558400000003;127.83415500000001;48;72;0.4085709999999807;piano
127.42558400000003;127.56665528750003;68;76;0.1410712874999973;piano
127.56665528750003;127.71040514375;70;77;0.1437498562499684;piano
127.71040514375;127.83415500000001;67;69;0.123749856250015;piano
127.83415500000001;128.00844050000003;56;80;0.17428550000002474;piano
127.83415500000001;128.4370115;68;73;0.6028565000000015;piano
128.00844050000003;128.22272600000002;58;82;0.21428549999998836;piano
128.22272600000002;128.631297;60;84;0.4085709999999665;piano
128.4370115;128.631297;75;86;0.19428549999997813;piano
128.631297;129.05986800000002;56;75;0.42857100000003356;piano
128.631297;128.8455825;72;79;0.21428550000001678;piano
128.8455825;129.05986800000002;68;70;0.21428550000001678;piano
129.05986800000002;129.44843900000004;49;72;0.3885710000000131;piano
129.05986800000002;129.44843900000004;68;93;0.3885710000000131;piano
129.05986800000002;129.44843900000004;73;93;0.3885710000000131;piano
129.05986800000002;129.44843900000004;77;93;0.3885710000000131;piano
129.44843900000004;129.91402000000002;37;68;0.46558099999998603;piano
129.44843900000004;129.91402000000002;65;78;0.46558099999998603;piano
129.44843900000004;129.91402000000002;68;78;0.46558099999998603;piano
129.44843900000004;129.91402000000002;73;78;0.46558099999998603;piano
129.91402000000002;130.05808128750002;77;83;0.14406128749999425;piano
130.05808128750002;130.26183114375002;73;74;0.20374985624999908;piano
130.26183114375002;130.36558100000002;72;72;0.10374985625000477;piano
130.36558100000002;130.89522328750002;73;75;0.5296422874999962;piano
130.77415200000002;131.16272300000003;49;82;0.3885710000000131;piano
130.89522328750002;130.99897314375002;61;65;0.10374985625000477;piano
130.99897314375002;131.16272300000003;60;65;0.16374985625000704;piano
131.16272300000003;131.30379428750004;61;65;0.14107128750001152;piano
131.30379428750004;131.44754414375004;63;69;0.1437498562499968;piano
131.44754414375004;131.551294;65;76;0.10374985624997635;piano
131.551294;131.99986500000003;51;77;0.4485710000000154;piano
131.551294;131.7523652875;66;80;0.20107128749998537;piano
131.7523652875;131.85611514375003;61;66;0.10374985625003319;piano
131.85611514375003;131.99986500000003;60;65;0.1437498562499968;piano
131.99986500000003;132.14046814375;61;68;0.14060314374998484;piano
132.14046814375;132.22468614375;65;84;0.0842179999999928;piano
132.22468614375;132.40843600000002;66;86;0.18374985625001727;piano
132.40843600000002;132.817007;53;82;0.4085709999999665;piano
132.40843600000002;132.5495072875;68;93;0.1410712874999831;piano
132.5495072875;132.67325714375002;61;66;0.123749856250015;piano
132.67325714375002;132.817007;60;65;0.1437498562499684;piano
132.817007;132.899519571875;61;68;0.08251257187501437;piano
132.899519571875;133.04182814375002;66;87;0.1423085718750201;piano
133.04182814375002;133.18557800000002;68;88;0.1437498562499968;piano
133.18557800000002;133.57414900000003;54;77;0.3885710000000131;piano
133.18557800000002;133.32664928750003;70;88;0.14107128750001152;piano
133.32664928750003;133.43039914375;61;65;0.10374985624997635;piano
133.43039914375;133.57414900000003;60;65;0.14374985625002523;piano
133.57414900000003;133.6952202875;61;66;0.12107128749997287;piano
133.6952202875;133.81897014375002;68;88;0.123749856250015;piano
133.81897014375002;133.96272000000005;70;88;0.14374985625002523;piano
133.96272000000005;134.35129100000003;42;78;0.3885709999999847;piano
133.96272000000005;134.1037912875;72;93;0.14107128749995468;piano
134.1037912875;134.22754114375002;68;85;0.123749856250015;piano
134.22754114375002;134.35129100000003;67;79;0.123749856250015;piano
134.35129100000003;134.4723622875;68;83;0.12107128749997287;piano
134.4723622875;134.61611214375;70;87;0.1437498562499968;piano
134.61611214375;134.759862;72;88;0.1437498562499968;piano
134.759862;135.12843300000003;41;75;0.3685710000000313;piano
134.759862;134.90093328750004;73;88;0.14107128750003994;piano
134.90093328750004;135.02468314375002;68;72;0.12374985624998658;piano
135.02468314375002;135.12843300000003;67;68;0.10374985625000477;piano
135.12843300000003;135.2695042875;68;73;0.1410712874999831;piano
135.2695042875;135.41325414375;72;87;0.1437498562499968;piano
135.41325414375;135.537004;73;88;0.12374985624998658;piano
135.537004;135.925575;39;80;0.3885710000000131;piano
135.537004;135.67807528750004;75;93;0.14107128750003994;piano
135.67807528750004;135.80182514375005;72;82;0.123749856250015;piano
135.80182514375005;135.925575;70;72;0.12374985624995816;piano
135.925575;136.06664628750002;72;81;0.14107128750001152;piano
136.06664628750002;136.17039614375003;73;84;0.10374985625000477;piano
136.17039614375003;136.35414600000004;75;88;0.18374985625001727;piano
136.35414600000004;136.74271700000003;37;76;0.3885709999999847;piano
136.35414600000004;136.4752172875;77;88;0.12107128749994445;piano
136.4752172875;136.599483571875;70;66;0.12426628437501108;piano
136.599483571875;136.74271700000003;69;65;0.14323342812502915;piano
136.74271700000003;136.8837882875;70;68;0.1410712874999831;piano
136.8837882875;137.02753814375004;76;88;0.14374985625002523;piano
137.02753814375004;137.151288;77;88;0.12374985624995816;piano
137.151288;137.51985900000003;36;80;0.3685710000000313;piano
137.151288;137.36557350000004;79;93;0.2142855000000452;piano
137.36557350000004;137.51985900000003;77;86;0.1542854999999861;piano
137.51985900000003;137.71414450000003;48;83;0.19428550000000655;piano
137.51985900000003;137.71414450000003;76;82;0.19428550000000655;piano
137.71414450000003;137.92843000000002;50;83;0.21428549999998836;piano
137.71414450000003;137.92843000000002;74;73;0.21428549999998836;piano
137.92843000000002;138.277001;52;84;0.34857099999999264;piano
137.92843000000002;138.277001;72;67;0.34857099999999264;piano
138.277001;138.66557200000003;48;77;0.3885710000000131;piano
138.277001;138.66557200000003;70;67;0.3885710000000131;piano
138.66557200000003;139.07707150000002;41;75;0.4114994999999908;piano
138.66557200000003;138.72896479375;68;74;0.06339279374998341;piano
138.72896479375;138.79325044375005;70;74;0.06428565000004482;piano
138.79325044375005;138.8798575;68;74;0.08660705624996012;piano
138.8798575;139.07707150000002;67;68;0.19721400000000244;piano
139.07707150000002;139.28842850000004;53;85;0.2113570000000209;piano
139.07707150000002;139.6969995;68;71;0.6199279999999874;piano
139.28842850000004;139.48271400000002;52;82;0.19428549999997813;piano
139.48271400000002;139.871285;53;82;0.3885709999999847;piano
139.6969995;139.871285;65;72;0.17428549999999632;piano
139.871285;140.259856;56;84;0.3885710000000131;piano
139.871285;140.0455705;64;72;0.17428549999999632;piano
140.0455705;140.259856;65;75;0.21428550000001678;piano
140.259856;140.66842700000004;43;73;0.40857100000002333;piano
140.259856;140.4741415;71;91;0.21428549999998836;piano
140.4741415;140.66842700000004;72;86;0.19428550000003497;piano
140.66842700000004;140.86271250000004;59;86;0.19428550000000655;piano
140.66842700000004;140.86271250000004;74;87;0.19428550000000655;piano
140.86271250000004;141.07699800000003;60;85;0.21428549999998836;piano
140.86271250000004;141.07699800000003;72;82;0.21428549999998836;piano
141.07699800000003;141.445569;62;85;0.36857099999997445;piano
141.07699800000003;141.237820875;71;78;0.1608228749999796;piano
141.237820875;141.445569;68;69;0.20774812499999484;piano
141.445569;141.85414000000003;59;78;0.40857100000002333;piano
141.445569;141.64992725000002;67;68;0.20435825000001273;piano
141.64992725000002;141.85414000000003;65;66;0.2042127500000106;piano
141.85414000000003;142.28271100000003;60;83;0.42857100000000514;piano
141.85414000000003;141.9309256375;65;76;0.0767856374999667;piano
141.9309256375;142.04860413125;67;76;0.11767849374999173;piano
142.04860413125;142.28271100000003;65;76;0.23410686875004671;piano
142.28271100000003;142.4969965;48;67;0.21428549999995994;piano
142.28271100000003;142.9255675;64;68;0.6428564999999651;piano
142.4969965;142.711282;49;68;0.21428550000001678;piano
142.711282;143.07985300000004;48;69;0.3685710000000313;piano
142.9255675;143.07985300000004;72;83;0.15428550000004293;piano
143.07985300000004;143.50842400000002;46;71;0.4285709999999767;piano
143.07985300000004;143.29413850000003;74;84;0.21428549999998836;piano
143.29413850000003;143.50842400000002;76;85;0.21428549999998836;piano
143.50842400000002;143.896995;44;77;0.3885709999999847;piano
143.50842400000002;143.896995;77;90;0.3885709999999847;piano
143.896995;144.325566;56;87;0.42857100000000514;piano
143.896995;144.47996287499998;77;81;0.58296787499998;piano
144.325566;144.694137;56;84;0.36857100000000287;piano
144.47996287499998;144.694137;84;85;0.21417412500002797;piano
144.694137;145.14270800000003;44;70;0.4485710000000154;piano
144.694137;144.88842250000002;80;78;0.19428550000000655;piano
144.88842250000002;145.14270800000003;76;70;0.2542855000000088;piano
145.14270800000003;145.59127900000001;46;78;0.44857099999998695;piano
145.14270800000003;145.35699350000002;77;77;0.21428549999998836;piano
145.35699350000002;145.59127900000001;76;71;0.2342854999999986;piano
145.59127900000001;145.93985;58;86;0.34857099999999264;piano
145.59127900000001;146.11413550000003;77;74;0.5228565000000174;piano
145.93985;146.32842100000002;58;84;0.3885710000000131;piano
146.11413550000003;146.32842100000002;84;85;0.21428549999998836;piano
146.32842100000002;146.716992;46;70;0.3885709999999847;piano
146.32842100000002;146.54270650000004;80;77;0.21428550000001678;piano
146.54270650000004;146.716992;76;69;0.1742854999999679;piano
146.716992;147.145563;48;77;0.42857100000000514;piano
146.716992;146.83903164375002;77;77;0.12203964375001419;piano
146.83903164375002;146.98181314375003;79;78;0.14278150000001233;piano
146.98181314375003;147.145563;76;69;0.16374985624997862;piano
147.145563;147.53413400000002;60;86;0.3885710000000131;piano
147.145563;147.697104875;77;73;0.5515418749999981;piano
147.53413400000002;147.90270500000003;60;84;0.36857100000000287;piano
147.697104875;147.90270500000003;84;86;0.2056001250000179;piano
147.90270500000003;148.271276;48;69;0.36857099999997445;piano
147.90270500000003;148.1169905;80;77;0.21428549999998836;piano
148.1169905;148.271276;77;70;0.1542854999999861;piano
148.271276;148.699847;49;76;0.42857100000000514;piano
148.271276;148.4123472875;82;88;0.14107128750001152;piano
148.4123472875;148.55609714375;80;77;0.1437498562499968;piano
148.55609714375;148.699847;78;71;0.1437498562499968;piano
148.699847;149.10841800000003;53;78;0.40857100000002333;piano
148.699847;148.82091828750004;77;68;0.12107128750002971;piano
148.82091828750004;148.96466814375003;75;66;0.1437498562499968;piano
148.96466814375003;149.10841800000003;73;65;0.1437498562499968;piano
149.10841800000003;149.496989;58;84;0.3885709999999847;piano
149.10841800000003;149.24948928750004;75;68;0.14107128750001152;piano
149.24948928750004;149.37323914375003;73;65;0.12374985624998658;piano
149.37323914375003;149.496989;72;65;0.12374985624998658;piano
149.496989;149.92556000000002;55;77;0.42857100000000514;piano
149.496989;149.6380602875;73;67;0.1410712874999831;piano
149.6380602875;149.78181014375002;72;66;0.14374985625002523;piano
149.78181014375002;149.92556000000002;70;65;0.1437498562499968;piano
149.92556000000002;150.334131;52;78;0.4085709999999949;piano
149.92556000000002;150.06663128750003;79;93;0.14107128750001152;piano
150.06663128750003;150.19038114375;77;86;0.12374985624995816;piano
150.19038114375;150.334131;76;82;0.14374985625002523;piano
150.334131;150.76270200000002;55;78;0.42857100000000514;piano
150.334131;150.4752022875;73;68;0.1410712874999831;piano
150.4752022875;150.61895214375002;72;67;0.14374985625002523;piano
150.61895214375002;150.76270200000002;70;65;0.1437498562499968;piano
150.76270200000002;151.131273;52;74;0.36857099999997445;piano
150.76270200000002;150.86377328750004;72;69;0.10107128750001948;piano
150.86377328750004;151.00752314375003;70;65;0.1437498562499968;piano
151.00752314375003;151.131273;68;65;0.12374985624995816;piano
151.131273;151.57968800000006;48;71;0.4484150000000682;piano
151.131273;151.27234428750003;70;68;0.14107128750003994;piano
151.27234428750003;151.41609414375;68;65;0.1437498562499684;piano
151.41609414375;151.57968800000006;67;65;0.16359385625005984;piano
151.57968800000006;152.00841500000004;41;74;0.42872699999998076;piano
151.57968800000006;151.72091528750002;68;71;0.14122728749995872;piano
151.72091528750002;151.86466514375005;77;88;0.14374985625002523;piano
151.86466514375005;152.00841500000004;79;88;0.1437498562499968;piano
152.00841500000004;152.39698600000003;41;73;0.3885709999999847;piano
152.00841500000004;152.1494862875;80;88;0.14107128749995468;piano
152.1494862875;152.29323614375002;79;88;0.14374985625002523;piano
152.29323614375002;152.39698600000003;77;87;0.10374985625000477;piano
152.39698600000003;152.825557;43;76;0.4285709999999767;piano
152.39698600000003;152.5380572875;70;65;0.1410712874999831;piano
152.5380572875;152.68180714375004;77;87;0.14374985625002523;piano
152.68180714375004;152.825557;79;88;0.1437498562499684;piano
152.825557;153.23412800000003;43;76;0.40857100000002333;piano
152.825557;152.96662828750004;80;88;0.14107128750003994;piano
152.96662828750004;153.11037814375;79;87;0.1437498562499684;piano
153.11037814375;153.23412800000003;77;78;0.123749856250015;piano
153.23412800000003;153.64269900000002;44;82;0.4085709999999949;piano
153.23412800000003;153.3751992875;72;69;0.1410712874999831;piano
153.3751992875;153.51894914375004;77;80;0.14374985625002523;piano
153.51894914375004;153.64269900000002;79;86;0.12374985624998658;piano
153.64269900000002;154.05127000000002;44;77;0.4085709999999949;piano
153.64269900000002;153.78754057500007;80;87;0.14484157500004358;piano
153.78754057500007;153.94752014375004;79;84;0.159979568749975;piano
153.94752014375004;154.05127000000002;77;73;0.10374985624997635;piano
154.05127000000002;154.47984100000002;46;78;0.42857100000000514;piano
154.05127000000002;154.1923412875;73;65;0.1410712874999831;piano
154.1923412875;154.33609114375;77;76;0.1437498562499968;piano
154.33609114375;154.47984100000002;79;84;0.14374985625002523;piano
154.47984100000002;154.88841200000002;46;77;0.4085709999999949;piano
154.47984100000002;154.62091228750003;80;86;0.14107128750001152;piano
154.62091228750003;154.76466214375;79;82;0.1437498562499684;piano
154.76466214375;154.88841200000002;77;72;0.123749856250015;piano
154.88841200000002;155.2923276666667;39;77;0.403915666666677;piano
154.88841200000002;155.02948328750003;79;87;0.14107128750001152;piano
155.02948328750003;155.17323314375002;73;65;0.1437498562499968;piano
155.17323314375002;155.2923276666667;72;65;0.11909452291666867;piano
155.2923276666667;155.705554;39;74;0.4132263333333128;piano
155.2923276666667;155.4180542875;70;65;0.1257266208333192;piano
155.4180542875;155.56180414375004;72;65;0.14374985625002523;piano
155.56180414375004;155.705554;73;68;0.1437498562499684;piano
155.705554;156.07853125000003;44;78;0.37297725000001947;piano
155.705554;155.84662528750005;72;67;0.14107128750003994;piano
155.84662528750005;155.99037514375001;76;84;0.1437498562499684;piano
155.99037514375001;156.07853125000003;77;86;0.08815610625001113;piano
156.07853125000003;156.52269600000005;44;78;0.4441647500000272;piano
156.07853125000003;156.2151962875;79;88;0.1366650374999665;piano
156.2151962875;156.35894614375005;77;84;0.14374985625005365;piano
156.35894614375005;156.52269600000005;76;79;0.16374985625000704;piano
156.52269600000005;156.8556335;38;78;0.33293749999995725;piano
156.52269600000005;156.5967534575;77;88;0.07405745749994708;piano
156.5967534575;156.72751714375002;72;65;0.13076368625002033;piano
156.72751714375002;156.8556335;70;65;0.12811635624998985;piano
156.8556335;157.279838;38;74;0.42420450000000187;piano
156.8556335;156.99233828750002;68;65;0.13670478750000825;piano
156.99233828750002;157.13608814375;70;65;0.1437498562499684;piano
157.13608814375;157.279838;72;72;0.14374985625002523;piano
157.279838;157.68840900000004;37;74;0.40857100000002333;piano
157.279838;157.42090928750002;71;68;0.14107128750001152;piano
157.42090928750002;157.54465914375;77;88;0.12374985624998658;piano
157.54465914375;157.68840900000004;79;88;0.14374985625002523;piano
157.68840900000004;158.09698;37;75;0.4085709999999665;piano
157.68840900000004;157.80948028750004;80;88;0.12107128750000129;piano
157.80948028750004;157.95323014375003;79;88;0.1437498562499968;piano
157.95323014375003;158.09698;77;84;0.1437498562499684;piano
158.09698;158.48555100000002;36;80;0.3885710000000131;piano
158.09698;158.23805128750004;76;83;0.14107128750003994;piano
158.23805128750004;158.36180114375006;72;65;0.123749856250015;piano
158.36180114375006;158.48555100000002;76;79;0.12374985624995816;piano
158.48555100000002;158.67983650000002;52;87;0.19428550000000655;piano
158.48555100000002;158.62662228750003;79;88;0.14107128750001152;piano
158.62662228750003;158.73518607187503;76;76;0.1085637843750078;piano
158.67983650000002;158.87412200000003;53;86;0.19428550000000655;piano
158.73518607187503;158.87412200000003;79;87;0.13893592812499378;piano
158.87412200000003;159.28269300000002;55;86;0.4085709999999949;piano
158.87412200000003;159.0151932875;82;88;0.1410712874999831;piano
159.0151932875;159.15894314375;79;84;0.1437498562499968;piano
159.15894314375;159.28269300000002;82;88;0.123749856250015;piano
159.28269300000002;159.691264;52;79;0.4085709999999665;piano
159.28269300000002;159.4237642875;85;88;0.1410712874999831;piano
159.4237642875;159.54751414375002;84;88;0.123749856250015;piano
159.54751414375002;159.691264;82;84;0.1437498562499684;piano
159.691264;160.059967;36;72;0.36870300000001066;piano
159.691264;159.83233528750003;84;93;0.14107128750003994;piano
159.83233528750003;159.99608514375;80;71;0.16374985624997862;piano
159.99608514375;160.059967;77;65;0.0638818562499921;piano
160.059967;160.27412050000004;53;83;0.2141535000000374;piano
160.059967;160.20090628750003;72;65;0.14093928750003215;piano
160.20090628750003;160.34465614375003;68;65;0.1437498562499968;piano
160.27412050000004;160.48840600000003;55;84;0.21428549999998836;piano
160.34465614375003;160.48840600000003;72;65;0.1437498562499968;piano
160.48840600000003;160.83924425;56;84;0.35083824999998114;piano
160.48840600000003;160.60947728750003;77;76;0.12107128750000129;piano
160.60947728750003;160.75322714375002;72;65;0.1437498562499968;piano
160.75322714375002;160.83924425;77;80;0.08601710624998304;piano
160.83924425;161.26554800000002;53;77;0.42630375000001663;piano
160.83924425;160.9780482875;80;88;0.1388040374999946;piano
160.9780482875;161.12179814375003;77;78;0.14374985625002523;piano
161.12179814375003;161.26554800000002;80;88;0.1437498562499968;piano
161.26554800000002;161.634119;36;72;0.36857099999997445;piano
161.26554800000002;161.38661928750003;82;93;0.12107128750000129;piano
161.38661928750003;161.49036914375;79;83;0.10374985624997635;piano
161.49036914375;161.634119;76;68;0.1437498562499968;piano
161.634119;161.84840450000004;55;84;0.2142855000000452;piano
161.634119;161.7751902875;70;65;0.14107128750001152;piano
161.7751902875;161.91894014375;67;65;0.1437498562499968;piano
161.84840450000004;162.06269000000003;56;84;0.21428549999998836;piano
161.91894014375;162.06269000000003;70;65;0.14374985625002523;piano
162.06269000000003;162.431261;58;84;0.36857099999997445;piano
162.06269000000003;162.20376128750001;76;84;0.1410712874999831;piano
162.20376128750001;162.30751114375005;70;65;0.10374985625003319;piano
162.30751114375005;162.431261;76;85;0.12374985624995816;piano
162.431261;162.83983200000003;55;77;0.40857100000002333;piano
162.431261;162.55233228750004;79;88;0.12107128750002971;piano
162.55233228750004;162.69608214375;76;82;0.1437498562499684;piano
162.69608214375;162.83983200000003;79;88;0.14374985625002523;piano
162.83983200000003;163.26840300000003;36;72;0.42857100000000514;piano
162.83983200000003;162.9809032875;80;93;0.1410712874999831;piano
162.9809032875;163.12465314375004;77;81;0.14374985625002523;piano
163.12465314375004;163.26840300000003;72;65;0.1437498562499968;piano
163.26840300000003;163.46268850000004;53;80;0.19428550000000655;piano
163.26840300000003;163.3894742875;68;65;0.12107128749997287;piano
163.3894742875;163.51661207187502;65;65;0.12713778437500878;piano
163.46268850000004;163.656974;55;82;0.1942854999999497;piano
163.51661207187502;163.656974;68;65;0.1403619281249746;piano
163.656974;164.06554500000001;56;83;0.40857100000002333;piano
163.656974;163.79804528750003;72;74;0.14107128750003994;piano
163.79804528750003;163.92179514375002;68;65;0.12374985624998658;piano
163.92179514375002;164.06554500000001;72;78;0.1437498562499968;piano
164.06554500000001;164.474116;53;76;0.4085709999999949;piano
164.06554500000001;164.20661628750003;77;88;0.14107128750001152;piano
164.20661628750003;164.35036614375002;79;88;0.1437498562499968;piano
164.35036614375002;164.474116;80;88;0.12374985624998658;piano
164.474116;164.86268700000005;36;72;0.3885710000000415;piano
164.474116;164.61518728750002;71;70;0.14107128750001152;piano
164.61518728750002;164.73893714375004;77;87;0.123749856250015;piano
164.73893714375004;164.86268700000005;80;88;0.123749856250015;piano
164.86268700000005;165.0769725;59;86;0.21428549999995994;piano
164.86268700000005;165.00375828750003;80;88;0.1410712874999831;piano
165.00375828750003;165.14750814375003;77;82;0.1437498562499968;piano
165.0769725;165.29125800000003;60;85;0.21428550000001678;piano
165.14750814375003;165.29125800000003;71;65;0.1437498562499968;piano
165.29125800000003;165.67982900000004;62;85;0.3885710000000131;piano
165.29125800000003;165.4323292875;71;65;0.1410712874999831;piano
165.4323292875;165.57607914375;77;85;0.1437498562499968;piano
165.57607914375;165.67982900000004;80;88;0.10374985625003319;piano
165.67982900000004;166.10840000000002;59;78;0.4285709999999767;piano
165.67982900000004;165.82090028750002;80;88;0.1410712874999831;piano
165.82090028750002;165.96465014375002;77;78;0.1437498562499968;piano
165.96465014375002;166.10840000000002;71;65;0.1437498562499968;piano
166.10840000000002;166.516971;36;72;0.4085709999999949;piano
166.10840000000002;166.24947128750003;70;69;0.14107128750001152;piano
166.24947128750003;166.37322114375002;76;80;0.12374985624998658;piano
166.37322114375002;166.516971;77;84;0.1437498562499968;piano
166.516971;166.73125650000003;60;83;0.21428550000001678;piano
166.516971;166.65804228750002;79;88;0.14107128750001152;piano
166.65804228750002;166.80179214375005;76;77;0.14374985625002523;piano
166.73125650000003;166.925542;62;84;0.19428549999997813;piano
166.80179214375005;166.925542;70;65;0.12374985624995816;piano
166.925542;167.29411300000004;64;85;0.3685710000000313;piano
166.925542;167.06661328750005;70;65;0.14107128750003994;piano
167.06661328750005;167.1725907859375;76;84;0.10597749843745419;piano
167.1725907859375;167.29411300000004;77;86;0.12152221406253716;piano
167.29411300000004;167.74268400000005;60;76;0.4485710000000154;piano
167.29411300000004;167.41518428749998;79;88;0.12107128749994445;piano
167.41518428749998;167.55893414375004;76;79;0.14374985625005365;piano
167.55893414375004;167.74268400000005;70;65;0.18374985625001727;piano
167.74268400000005;168.17125500000003;56;74;0.4285709999999767;piano
167.74268400000005;167.8837552875;72;70;0.14107128749995468;piano
167.8837552875;168.02750514375003;68;65;0.14374985625002523;piano
168.02750514375003;168.17125500000003;67;65;0.1437498562499968;piano
168.17125500000003;168.599826;44;68;0.4285709999999767;piano
168.17125500000003;168.3123262875;65;65;0.1410712874999831;piano
168.3123262875;168.45607614375;64;65;0.1437498562499968;piano
168.45607614375;168.599826;65;65;0.1437498562499968;piano
168.599826;169.00839700000003;46;71;0.40857100000002333;piano
168.599826;168.74089728750005;74;88;0.14107128750003994;piano
168.74089728750005;168.86464714375003;68;68;0.12374985624998658;piano
168.86464714375003;169.00839700000003;67;67;0.1437498562499968;piano
169.00839700000003;169.39696800000002;58;85;0.3885709999999847;piano
169.00839700000003;169.1494682875;65;65;0.1410712874999831;piano
169.1494682875;169.25321814375002;64;65;0.10374985625000477;piano
169.25321814375002;169.39696800000002;65;67;0.1437498562499968;piano
169.39696800000002;169.82553900000002;60;89;0.42857100000000514;piano
169.39696800000002;169.53803928750003;76;93;0.14107128750001152;piano
169.53803928750003;169.68178914375005;68;75;0.14374985625002523;piano
169.68178914375005;169.82553900000002;67;71;0.1437498562499684;piano
169.82553900000002;170.17411000000004;48;70;0.34857100000002106;piano
169.82553900000002;169.9266102875;65;66;0.10107128749999106;piano
169.9266102875;170.03036014375002;64;65;0.10374985625000477;piano
170.03036014375002;170.17411000000004;65;68;0.14374985625002523;piano
170.17411000000004;170.60268100000002;49;73;0.4285709999999767;piano
170.17411000000004;170.3151812875;77;88;0.14107128749995468;piano
170.3151812875;170.45893114375002;73;88;0.14374985625002523;piano
170.45893114375002;170.60268100000002;72;87;0.1437498562499968;piano
170.60268100000002;171.082504;61;86;0.4798229999999819;piano
170.60268100000002;170.74750457500005;70;79;0.14482357500003218;piano
170.74750457500005;170.90750214375004;69;74;0.15999756874998639;piano
170.90750214375004;171.082504;70;79;0.17500185624996334;piano
171.082504;171.51982300000003;43;75;0.43731900000003066;piano
171.082504;172.76660728750002;82;93;1.6841032875000224;piano
171.51982300000003;171.73410850000005;58;84;0.21428550000001678;piano
171.73410850000005;171.94839400000004;60;84;0.21428549999998836;piano
171.94839400000004;172.316965;61;84;0.36857099999997445;piano
172.316965;172.62553600000004;58;77;0.308571000000029;piano
172.62553600000004;173.194107;48;71;0.5685709999999631;piano
172.76660728750002;173.07035714375002;79;78;0.3037498562499934;piano
173.07035714375002;173.194107;77;76;0.12374985624998658;piano
173.194107;173.60267800000003;60;84;0.40857100000002333;piano
173.194107;173.3351782875;76;74;0.14107128750001152;piano
173.3351782875;173.47892814375;74;71;0.1437498562499968;piano
173.47892814375;173.60267800000003;72;68;0.123749856250015;piano
173.60267800000003;173.72374928750003;71;67;0.12107128750000129;piano
173.72374928750003;173.86749914375005;72;70;0.14374985625002523;piano
173.86749914375005;173.977083;76;83;0.10958385624994094;piano
173.977083;174.11232028750004;79;88;0.13523728750004693;piano
174.11232028750004;174.25607014375;80;88;0.1437498562499684;piano
174.25607014375;174.35982000000004;82;88;0.10374985625003319;piano
174.35982000000004;174.78839100000005;41;78;0.42857100000000514;piano
174.35982000000004;176.05517528750002;80;92;1.6953552874999787;piano
174.78839100000005;175.00267650000004;53;81;0.21428549999998836;piano
175.00267650000004;175.176962;55;82;0.1742854999999679;piano
175.176962;175.56553300000002;56;82;0.3885710000000131;piano
175.56553300000002;175.914104;53;76;0.34857099999999264;piano
175.914104;176.36267500000005;46;74;0.4485710000000438;piano
176.05517528750002;176.19892514375002;82;77;0.1437498562499968;piano
176.19892514375002;176.36267500000005;80;75;0.16374985625003546;piano
176.36267500000005;176.79124600000003;58;85;0.4285709999999767;piano
176.36267500000005;176.52374628750005;78;72;0.16107128749999333;piano
176.52374628750005;176.66749614375004;80;76;0.1437498562499968;piano
176.66749614375004;176.79124600000003;77;70;0.12374985624998658;piano
176.79124600000003;176.9323172875;78;73;0.1410712874999831;piano
176.9323172875;177.07606714375;82;84;0.1437498562499968;piano
177.07606714375;177.19981700000002;84;87;0.123749856250015;piano
177.19981700000002;177.34088828750004;85;88;0.14107128750001152;piano
177.34088828750004;177.46463814375002;82;79;0.12374985624998658;piano
177.46463814375002;177.60838800000002;78;66;0.1437498562499968;piano
177.60838800000002;177.996959;46;79;0.3885709999999847;piano
177.60838800000002;177.74945928750003;76;69;0.14107128750001152;piano
177.74945928750003;177.89320914375003;79;72;0.1437498562499968;piano
177.89320914375003;177.996959;80;76;0.10374985624997635;piano
177.996959;178.42553;55;81;0.42857100000000514;piano
177.996959;178.13803028750002;82;84;0.14107128750001152;piano
178.13803028750002;178.28178014375004;79;71;0.14374985625002523;piano
178.28178014375004;178.42553;76;65;0.1437498562499684;piano
178.42553;178.54660128750004;72;65;0.12107128750002971;piano
178.54660128750004;178.69035114375;73;65;0.1437498562499684;piano
178.69035114375;178.7980336666667;72;65;0.10768252291669;piano
178.7980336666667;178.9351722875;70;65;0.13713862083329786;piano
178.9351722875;179.07892214375005;68;65;0.14374985625005365;piano
179.07892214375005;179.22267200000005;67;65;0.1437498562499968;piano
179.22267200000005;179.61124300000003;44;79;0.3885709999999847;piano
179.22267200000005;179.61124300000003;65;69;0.3885709999999847;piano
179.61124300000003;179.82552850000002;53;80;0.21428549999998836;piano
179.61124300000003;180.19803316666668;65;65;0.5867901666666455;piano
179.82552850000002;180.01990700000002;55;82;0.19437849999999912;piano
180.01990700000002;180.40838500000004;56;83;0.38847800000002053;piano
180.19803316666668;180.40838500000004;72;82;0.2103518333333625;piano
180.40838500000004;180.83695600000001;53;76;0.4285709999999767;piano
180.40838500000004;180.62267050000005;68;74;0.21428550000001678;piano
180.62267050000005;180.83695600000001;64;67;0.21428549999995994;piano
180.83695600000001;181.22552700000003;49;76;0.3885710000000131;piano
180.83695600000001;181.0512415;65;75;0.21428549999998836;piano
181.0512415;181.22552700000003;64;70;0.17428550000002474;piano
181.22552700000003;181.43981250000002;53;78;0.21428549999998836;piano
181.22552700000003;181.82838350000003;65;74;0.6028565000000015;piano
181.43981250000002;181.6180326666667;55;81;0.1782201666666765;piano
181.6180326666667;182.04266900000002;56;82;0.42463633333332496;piano
181.82838350000003;182.04266900000002;72;85;0.21428549999998836;piano
182.04266900000002;182.45124;53;75;0.4085709999999949;piano
182.04266900000002;182.2569545;68;77;0.21428549999998836;piano
182.2569545;182.45124;65;71;0.19428550000000655;piano
182.45124;182.87981100000002;46;73;0.42857100000000514;piano
182.45124;182.59231128750002;73;92;0.14107128750001152;piano
182.59231128750002;182.73606114375002;72;84;0.1437498562499968;piano
182.73606114375002;182.87981100000002;70;78;0.1437498562499968;piano
182.87981100000002;183.02088228750006;68;71;0.14107128750003994;piano
183.02088228750006;183.14463214375002;70;78;0.12374985624995816;piano
183.14463214375002;183.30838200000005;67;68;0.16374985625003546;piano
183.30838200000005;183.67923825;48;75;0.37085624999994593;piano
183.30838200000005;183.4494532875;76;88;0.14107128749995468;piano
183.4494532875;183.59320314375003;73;85;0.14374985625002523;piano
183.59320314375003;183.67923825;72;81;0.08603510624996602;piano
183.67923825;183.8180242875;70;72;0.13878603750001162;piano
183.8180242875;183.96177414375003;72;81;0.14374985625002523;piano
183.96177414375003;184.10552400000003;68;66;0.1437498562499968;piano
184.10552400000003;184.49409500000002;49;81;0.3885709999999847;piano
184.10552400000003;184.22659528750003;77;93;0.12107128750000129;piano
184.22659528750003;184.37034514375;75;87;0.1437498562499684;piano
184.37034514375;184.49409500000002;73;80;0.123749856250015;piano
184.49409500000002;184.5951662875;72;75;0.10107128749999106;piano
184.5951662875;184.73891614375003;73;79;0.14374985625002523;piano
184.73891614375003;184.86266600000005;70;67;0.123749856250015;piano
184.86266600000005;185.2556185;40;74;0.3929524999999501;piano
184.86266600000005;185.00373728750003;79;88;0.1410712874999831;piano
185.00373728750003;185.14748714375003;77;88;0.1437498562499968;piano
185.14748714375003;185.2556185;76;85;0.10813135624997017;piano
185.2556185;185.41230828750003;73;71;0.15668978750002793;piano
185.41230828750003;185.51605814375003;72;68;0.10374985625000477;piano
185.51605814375003;185.63980800000002;70;65;0.12374985624998658;piano
185.63980800000002;186.04837900000004;41;80;0.40857100000002333;piano
185.63980800000002;185.78087928750003;68;69;0.14107128750001152;piano
185.78087928750003;185.90462914375004;67;65;0.123749856250015;piano
185.90462914375004;186.04837900000004;65;65;0.1437498562499968;piano
186.04837900000004;186.45695;43;77;0.4085709999999665;piano
186.04837900000004;186.2094502875;70;73;0.1610712874999649;piano
186.2094502875;186.31320014375;68;67;0.10374985625000477;piano
186.31320014375;186.45695;67;65;0.1437498562499968;piano
186.45695;186.885521;44;77;0.42857100000000514;piano
186.45695;186.59802128750002;72;85;0.14107128750001152;piano
186.59802128750002;186.74177114375004;70;77;0.14374985625002523;piano
186.74177114375004;186.885521;68;69;0.1437498562499684;piano
186.885521;187.23409200000003;46;78;0.34857100000002106;piano
186.885521;187.00659228750004;73;88;0.12107128750002971;piano
187.00659228750004;187.09034214375;70;77;0.08374985624996611;piano
187.09034214375;187.23409200000003;67;66;0.14374985625002523;piano
187.23409200000003;187.66266300000004;36;75;0.42857100000000514;piano
187.23409200000003;187.35516328750003;64;69;0.12107128750000129;piano
187.35516328750003;187.49891314375003;67;69;0.1437498562499968;piano
187.49891314375003;187.66266300000004;70;84;0.16374985625000704;piano
187.66266300000004;187.8769485;48;82;0.21428549999995994;piano
187.66266300000004;188.110884821875;70;83;0.4482218218749665;piano
187.8769485;188.05123400000002;50;84;0.17428550000002474;piano
188.05123400000002;188.45980500000005;52;85;0.40857100000002333;piano
188.17230528750002;188.31605514375;67;72;0.1437498562499684;piano
188.31605514375;188.45980500000005;68;75;0.14374985625005365;piano
188.45980500000005;188.86837600000004;48;76;0.4085709999999949;piano
188.45980500000005;188.60087628750003;70;82;0.1410712874999831;piano
188.60087628750003;188.72462614375002;68;74;0.12374985624998658;piano
188.72462614375002;188.86837600000004;67;71;0.14374985625002523;piano
188.86837600000004;189.08266150000006;53;87;0.21428550000001678;piano
188.86837600000004;189.00944728750002;68;80;0.1410712874999831;piano
189.00944728750002;189.15319714375002;73;88;0.1437498562499968;piano
189.08266150000006;189.276947;55;84;0.1942854999999497;piano
189.15319714375002;189.276947;71;84;0.12374985624998658;piano
189.276947;189.49123250000002;56;84;0.21428550000001678;piano
189.276947;189.41801828750002;72;85;0.14107128750001152;piano
189.41801828750002;189.56176814375004;64;65;0.14374985625002523;piano
189.49123250000002;189.68551800000003;58;85;0.19428550000000655;piano
189.56176814375004;189.68551800000003;65;65;0.12374985624998658;piano
189.68551800000003;190.07408900000004;60;87;0.3885710000000131;piano
189.68551800000003;189.80658928750006;70;83;0.12107128750002971;piano
189.80658928750006;189.95033914375003;68;74;0.1437498562499684;piano
189.95033914375003;190.07408900000004;67;70;0.123749856250015;piano
190.07408900000004;190.56266000000005;48;67;0.4885710000000074;piano
190.07408900000004;190.2151602875;68;75;0.14107128749995468;piano
190.2151602875;190.39891014375004;67;71;0.1837498562500457;piano
190.39891014375004;190.56266000000005;65;66;0.16374985625000704;piano
190.56266000000005;190.78373128750002;53;79;0.22107128749996718;piano
190.56266000000005;190.78373128750002;65;71;0.22107128749996718;piano
190.78373128750002;191.02748114375004;48;68;0.24374985625001955;piano
190.78373128750002;191.02748114375004;60;65;0.24374985625001955;piano
191.02748114375004;191.25123100000002;46;68;0.2237498562499809;piano
191.02748114375004;191.25123100000002;58;65;0.2237498562499809;piano
191.25123100000002;191.53532516250033;44;68;0.2840941625003097;piano
191.25123100000002;191.53532516250033;56;65;0.2840941625003097;piano
191.53532516250033;191.79605214375002;46;70;0.2607269812496895;piano
191.53532516250033;191.79605214375002;58;65;0.2607269812496895;piano
191.79605214375002;192.19782200000017;48;75;0.40176985625015504;piano
191.79605214375002;192.19782200000017;60;67;0.40176985625015504;piano
192.19782200000017;195.14538500000165;41;67;2.9475630000014803;piano
192.19782200000017;195.14538500000165;53;65;2.9475630000014803;piano
